<svg width="153" height="153" viewBox="0 0 153 153" fill="none" xmlns="http://www.w3.org/2000/svg">
<path d="M76.5 153C118.75 153 153 118.75 153 76.5C153 34.2502 118.75 0 76.5 0C34.2502 0 0 34.2502 0 76.5C0 118.75 34.2502 153 76.5 153Z" fill="#EDE9E1"/>
<path d="M75.4673 68.9152C74.7818 67.6338 74.083 66.3669 73.3184 65.1292C73.0283 64.6778 72.6724 63.775 72.0791 64.0517L72 64.2119V64.3429C72 64.3429 74.2808 69.3229 74.5049 69.8034C75.4033 71.6288 75.9171 73.6547 76.0079 75.7299C76.0079 75.9629 76.2979 76.1231 76.4298 75.8755C77.735 73.6622 76.5352 71.0266 75.4673 68.9152Z" fill="#E3B6AA"/>
<path d="M133.904 103.666C132.346 102.851 130.992 101.512 129.536 100.565C128.14 99.6603 126.68 98.8575 125.169 98.1632C122.889 97.1428 120.452 96.5176 117.962 96.3144C118.967 95.7757 119.942 95.1934 120.874 94.5674C123.491 92.8387 125.866 90.7677 127.935 88.4095C130.188 86.4336 131.621 83.6867 131.953 80.7083H131.807C131.252 82.3805 130.28 83.8836 128.983 85.0757C126.2 88.3434 122.93 91.162 119.287 93.4319C116.835 94.9286 114.222 96.1445 111.498 97.0568C110.202 97.4936 108.907 97.9449 107.567 98.2797C106.65 98.4981 105.718 98.6582 104.801 98.862C102.224 97.974 99.7202 96.9404 97.1724 95.9504C95.5863 95.3344 93.9679 94.8047 92.3244 94.3636C94.0181 94.0958 95.5995 93.3481 96.8813 92.2091L97.2016 91.9033L98.803 91.1463C102.331 89.5323 105.976 88.1891 109.707 87.1284C113.391 86.0511 117.132 85.1776 120.845 84.2168C124.57 83.6664 128.174 82.4848 131.502 80.7229C131.597 80.6677 131.668 80.5786 131.7 80.4733C131.733 80.368 131.724 80.2544 131.676 80.1551C131.624 80.0644 131.54 79.9963 131.441 79.9641C131.341 79.9318 131.233 79.9376 131.138 79.9804C128.481 80.9424 125.756 81.7016 122.985 82.2514C123.874 81.2806 124.7 80.2547 125.46 79.1797C127.64 76.1943 129.587 73.0453 131.283 69.7608L131.152 69.6734C129.303 72.2647 127.28 74.7541 125.329 77.2581C124.353 78.5101 123.436 79.8348 122.344 80.9995C121.323 82.1466 119.942 82.9117 118.428 83.1686L118.268 83.2414C115.211 83.9256 112.182 84.6972 109.198 85.5852L108.31 85.8618C109.125 85.2358 109.911 84.5662 110.697 83.8965C113.027 81.8438 115.269 79.7038 117.787 77.8841C123.069 74.9177 127.96 71.3037 132.346 67.1258L132.433 67.0239C132.71 66.7036 132.302 66.2378 131.938 66.3106C130.026 66.8241 128.145 67.4462 126.304 68.174C124.63 68.6689 122.985 69.2513 121.369 69.9064C119.504 70.6722 117.804 71.7892 116.361 73.1965C117.342 71.1377 117.84 68.8821 117.817 66.6017C117.741 64.56 117.557 62.5239 117.263 60.502C117.132 59.4247 116.972 58.3619 116.783 57.2992C116.681 56.7751 116.579 56.2365 116.448 55.7124C116.317 55.1883 116.04 54.7079 115.909 54.1693C115.878 54.0413 115.798 53.9303 115.687 53.8597C115.576 53.7891 115.442 53.7644 115.312 53.7908C115.229 53.806 115.153 53.8467 115.094 53.9073C113.883 54.6507 112.725 55.4776 111.629 56.3821C110.654 57.2871 109.744 58.2601 108.907 59.2937C107.232 61.3343 105.792 63.5561 104.612 65.9175C104.358 60.9833 103.296 56.1243 101.467 51.5343C101.457 51.4858 101.437 51.4399 101.409 51.3994C101.38 51.3589 101.343 51.3246 101.301 51.2987C101.259 51.2728 101.212 51.2558 101.163 51.2488C101.114 51.2417 101.064 51.2448 101.016 51.2577H100.943C99.4872 51.8691 97.813 52.2622 96.2844 52.8445C94.7602 53.4186 93.2682 54.0747 91.8149 54.8098C89.1063 56.1361 86.5731 57.7938 84.2735 59.745L84.0697 59.9196C84.1276 59.3148 84.0833 58.7046 83.9387 58.1145C83.3257 55.8467 82.3682 53.6863 81.0997 51.709C79.9055 49.8303 78.5461 48.0618 77.0379 46.4245C75.338 44.8378 74.0362 42.8727 73.2381 40.6887C73.2245 40.6405 73.1924 40.5996 73.1487 40.575C73.1051 40.5505 73.0534 40.5442 73.0052 40.5577C72.9612 40.5681 72.923 40.5952 72.8986 40.6332C72.8742 40.6712 72.8654 40.7171 72.8741 40.7615C73.1344 42.5551 73.764 44.2752 74.7231 45.813C75.7568 47.5018 77.0379 49.0012 78.1735 50.6172C79.4107 52.3859 80.4597 54.279 81.3036 56.2656C81.8241 57.1535 82.1377 58.1474 82.2209 59.1732C82.3041 60.1991 82.1547 61.2305 81.784 62.1907C78.7391 65.2756 76.9802 69.4022 76.8632 73.7351C74.7741 74.4505 72.9177 75.7183 71.4911 77.4037C69.6137 80.1051 68.857 83.4292 69.3801 86.6771C69.5845 88.4789 69.9748 90.2547 70.5448 91.9761C70.8793 92.9838 71.4197 93.9108 72.1317 94.6984C69.979 94.1913 67.8022 93.7929 65.6094 93.5047C62.9427 91.3622 60.8581 88.583 59.5479 85.4232C58.2376 82.2634 57.7437 78.8246 58.1117 75.4238C57.8823 71.8724 59.0292 68.369 61.3146 65.6409C62.5364 64.4485 64.0659 63.6195 65.732 63.2467C67.3981 62.8739 69.1351 62.972 70.7486 63.53C70.8034 63.5393 70.8597 63.5287 70.9074 63.5001C70.9551 63.4715 70.991 63.4268 71.0085 63.374C71.0261 63.3213 71.0242 63.264 71.0033 63.2125C70.9823 63.161 70.9436 63.1187 70.8942 63.0933C69.6465 62.553 68.2991 62.2815 66.9395 62.2965C65.58 62.3116 64.2388 62.6128 63.0034 63.1806C63.0544 62.7941 63.0544 62.4025 63.0034 62.016C62.9886 60.4174 63.1055 58.8204 63.3528 57.241C63.7123 55.2044 64.3955 53.2385 65.3765 51.4178C67.4292 47.6619 70.3846 44.4737 72.5393 40.776C72.8159 40.3247 72.1899 39.7133 71.7968 40.15C70.2288 41.9508 68.761 43.8365 67.4001 45.7985C65.9883 47.5858 64.7547 49.5069 63.7168 51.5343C62.6727 53.7117 62.055 56.0688 61.897 58.4784C61.0949 56.802 60.0445 55.256 58.7814 53.8927C57.3337 52.3895 55.7659 51.0067 54.0936 49.7582C52.2155 48.3025 50.3375 46.8467 48.3575 45.5656C48.1828 45.4491 47.9499 45.7111 48.11 45.8567C51.0217 48.7683 54.3411 51.1558 57.1072 54.1693C58.4421 55.5677 59.5609 57.1575 60.4266 58.886C60.8451 59.7507 61.1674 60.6587 61.3874 61.5938C61.4872 62.3792 61.638 63.1572 61.8387 63.9231C59.7837 65.2481 58.2826 67.2771 57.6168 69.6298C56.8321 72.6447 56.61 75.7785 56.9616 78.874C57.1123 82.0425 57.8892 85.1497 59.2473 88.0164C57.7886 86.6481 56.4716 85.1361 55.3165 83.5034C53.6859 81.1742 52.2155 78.7139 50.5704 76.3992L50.2647 75.9625C48.9483 72.7127 48.1666 69.2714 47.9499 65.7719C47.3523 60.9438 47.1478 56.0752 47.3384 51.214C47.3384 52.1603 47.4985 53.092 47.6296 54.0237C48.1302 57.0208 48.9703 59.9513 50.1336 62.7584C50.7489 64.2327 51.2359 65.7572 51.5895 67.3151C51.8757 68.8716 52.0316 70.4494 52.0554 72.0318C52.1292 74.9735 52.9725 77.8445 54.5012 80.3589C54.5352 80.4214 54.5921 80.4684 54.6599 80.4901C54.7276 80.5118 54.8012 80.5065 54.8652 80.4754C54.9267 80.4442 54.9733 80.39 54.9951 80.3246C55.0169 80.2592 55.0121 80.1879 54.9817 80.126C53.8447 77.205 53.2955 74.0882 53.3656 70.9545C53.4216 69.5699 53.3239 68.1833 53.0745 66.8201C52.7447 65.4352 52.2966 64.0812 51.7351 62.773C50.5645 59.946 49.639 57.0237 48.9689 54.0383C48.6487 52.5825 48.4303 51.0102 48.2556 49.4962C48.0809 47.9822 48.1391 46.4245 47.8479 44.9687H47.6732L47.6004 45.7985L47.4694 45.9295C45.6244 52.6058 45.3108 59.6126 46.5522 66.427C46.7514 68.5706 47.1066 70.6969 47.615 72.7888C44.1819 69.4814 40.1434 66.8666 35.7206 65.0877C34.0604 64.3884 32.3193 63.8994 30.5378 63.6319C29.6005 63.4719 28.6487 63.4133 27.6989 63.4572C26.7011 63.6638 25.6885 63.7904 24.6707 63.8357C24.6255 63.8338 24.5804 63.841 24.538 63.8569C24.4957 63.8729 24.4571 63.8972 24.4244 63.9285C24.3918 63.9598 24.3658 63.9974 24.3481 64.039C24.3303 64.0806 24.3212 64.1253 24.3212 64.1706C25.0687 65.9645 26.1847 67.5814 27.5969 68.9164V68.9892C25.3961 68.1898 22.9895 68.159 20.769 68.9019C20.2107 69.065 19.7074 69.377 19.3131 69.8045L19.2112 69.9064C19.1182 70.0688 19.0542 70.2461 19.0219 70.4304C18.8181 71.7698 20.0847 73.1237 20.7835 74.1573C24.47 79.7071 28.746 84.8419 33.5368 89.4722C34.9467 90.9859 36.7137 92.1221 38.676 92.7768C37.4336 92.8499 36.198 93.0105 34.9781 93.2572C32.3477 93.8424 29.8962 95.0506 27.8299 96.7802C25.7391 98.6861 23.7926 100.744 22.0064 102.938L22.1375 103.069C23.8311 101.312 25.6562 99.6867 27.5969 98.2069C29.6301 96.5519 31.985 95.3374 34.5123 94.6402C37.1123 94.0419 39.7945 93.8844 42.4467 94.1744C44.0299 94.3167 45.574 94.7458 47.0035 95.4409C48.0357 97.1148 49.2463 98.6719 50.6141 100.085C51.2494 100.752 51.9252 101.379 52.6377 101.963C48.224 101.336 43.724 101.806 39.535 103.331C36.5669 104.29 33.5299 105.02 30.4504 105.515C27.3897 106.023 24.2491 105.706 21.3513 104.598L21.264 104.773C22.5299 105.605 23.9208 106.229 25.384 106.621C26.374 107.102 27.3786 107.568 28.4122 107.975C30.0719 108.645 31.7752 109.242 33.4932 109.766C36.8046 110.773 40.1801 111.556 43.5968 112.11C50.0586 113.79 56.9101 113.076 62.887 110.101C65.6094 108.47 68.0407 106.403 70.6176 104.569C71.4053 104.125 72.1219 103.566 72.7431 102.909C72.8027 102.849 72.8361 102.768 72.8361 102.683C72.8361 102.599 72.8027 102.518 72.7431 102.458C72.6846 102.413 72.613 102.389 72.5393 102.389C72.4656 102.389 72.394 102.413 72.3355 102.458C69.7873 104.153 66.7776 105.019 63.7181 104.939C60.6586 104.858 57.6988 103.834 55.2437 102.007C52.7535 100.252 50.5904 98.0739 48.8525 95.5719C47.7768 94.1594 46.9181 92.5941 46.3047 90.928C46.1137 90.3687 46.001 89.7857 45.9699 89.1956C46.2024 89.5034 46.4712 89.782 46.7706 90.0254C48.1054 90.9525 49.5799 91.6602 51.1382 92.1217C52.841 92.7002 54.5827 93.1575 56.3501 93.4901C59.8005 94.1452 63.2946 94.4801 66.7595 94.9459C68.8001 95.2371 70.8223 95.6454 72.8159 96.1688C74.461 96.6201 76.6448 97.4208 76.936 99.2114C76.7247 100.978 77.0859 102.766 77.9665 104.312C78.847 105.858 80.2004 107.081 81.8277 107.801L81.915 107.611C80.3997 106.469 79.3249 104.839 78.8723 102.996C78.377 102.081 78.1639 101.04 78.2598 100.003C78.3556 98.967 78.7562 97.9823 79.411 97.1733C81.1056 95.9609 83.0679 95.1756 85.1311 94.8842C87.1944 94.5927 89.2975 94.8037 91.2617 95.4991C95.4108 96.5182 99.2689 98.4107 103.287 99.8665C106.8 101.192 110.454 102.11 114.177 102.603L113.58 102.909C112.16 103.629 110.798 104.457 109.504 105.384C106.871 107.383 103.917 108.919 100.768 109.926C97.8687 110.744 94.8502 111.06 91.844 110.858C90.3102 110.768 88.7862 110.554 87.2871 110.217C85.8313 109.882 84.3754 109.184 82.9196 108.849L82.8031 109.038C83.9775 109.911 85.299 110.567 86.7048 110.974C88.0883 111.471 89.5169 111.832 90.9705 112.051C94.0693 112.492 97.2244 112.324 100.259 111.556L101.278 111.28C107.277 112.673 113.484 112.93 119.578 112.037C125.212 111.308 130.358 108.467 133.977 104.088C134 104.017 134.006 103.942 133.993 103.868C133.981 103.794 133.95 103.725 133.904 103.666V103.666ZM55.8406 104.263C58.5775 105.818 61.712 106.532 64.8524 106.316C65.3182 106.316 65.7987 106.228 66.3082 106.156L63.8187 107.859C61.1535 109.699 58.0901 110.881 54.8797 111.309C51.6263 111.628 48.3445 111.5 45.1255 110.931C41.646 110.406 38.1956 109.664 34.7598 108.834C32.8963 108.383 31.0328 107.888 29.1693 107.378L28.2812 107.116H28.9363C31.9885 106.923 35.0029 106.336 37.9044 105.369C40.8548 104.35 43.8902 103.595 46.9744 103.113C49.9795 102.753 53.0268 103.148 55.8406 104.263V104.263ZM19.5606 70.5469L20.041 71.3039C19.8172 71.0981 19.6515 70.837 19.5606 70.5469ZM54.9817 91.947C53.4624 91.6241 51.9686 91.191 50.5122 90.6514C49.2019 90.1709 47.2219 89.5741 46.5959 88.1765C46.423 87.8561 46.3764 87.4826 46.4654 87.1296C46.5543 86.7766 46.7723 86.4697 47.0763 86.2694C47.284 86.1458 47.5191 86.0757 47.7606 86.0656C48.7264 86.0496 49.6797 86.2854 50.5267 86.7499C52.0609 87.5814 53.4559 88.6472 54.6614 89.9089V89.9089C52.827 87.7835 50.7305 84.9592 47.5713 85.0466C47.0441 85.0388 46.5306 85.2146 46.1189 85.544C45.7071 85.8733 45.4228 86.3357 45.3147 86.8517C44.6049 88.9033 44.7304 91.1518 45.6641 93.1116L45.999 93.825C45.2025 93.5041 44.3722 93.2745 43.524 93.1408C42.4696 92.9692 41.4039 92.8768 40.3357 92.8642C37.5236 91.8911 35.0687 90.0957 33.2893 87.7107C30.96 85.2067 28.7228 82.6203 26.5778 79.9513C24.9473 77.9423 23.4768 75.8314 21.9336 73.7642C22.5781 74.4505 23.2636 75.0971 23.9864 75.7004C26.1637 77.4001 28.4494 78.9562 30.8289 80.3589C33.202 81.8147 35.6478 83.2705 37.8899 84.8864C38.9758 85.6793 40.0025 86.5502 40.9617 87.4923C41.6734 88.4391 42.4622 89.3253 43.3202 90.1418C43.3711 90.1701 43.4306 90.1782 43.4872 90.1648C43.5438 90.1513 43.5933 90.1172 43.626 90.0691C43.6323 90.0354 43.6323 90.0008 43.626 89.9671C43.437 88.913 42.9288 87.9424 42.1701 87.1866C41.4161 86.2023 40.546 85.3127 39.5787 84.537C37.3924 82.8621 35.0968 81.3349 32.707 79.9659C27.7328 77.5698 23.2457 74.2725 19.4732 70.2412C19.555 70.0304 19.6905 69.8447 19.8663 69.7026C20.1388 69.5216 20.4566 69.4207 20.7835 69.4114C21.6926 69.3023 22.6115 69.3023 23.5205 69.4114C24.4421 69.5108 25.353 69.691 26.243 69.95C26.97 70.2142 27.7142 70.4282 28.4705 70.5906L28.7616 70.4887C29.8535 71.7116 30.9454 72.949 32.0519 74.1718C33.5077 75.846 34.9636 77.5638 36.6087 79.1943C38.2538 80.8248 40.03 82.5572 41.7188 84.2604L41.8789 84.1294C40.4231 82.3534 39.1273 80.5191 37.7006 78.7721C36.2739 77.0252 34.7889 75.3365 33.2457 73.6332L33.1292 73.4876C34.4462 74.3662 35.8067 75.1776 37.2056 75.9188C42.3346 78.0599 47.0648 81.0524 51.1964 84.77C51.4439 85.032 51.8224 84.6826 51.6186 84.3915C48.1547 80.2919 43.79 77.0484 38.8653 74.9143C36.417 73.6914 34.0705 72.2748 31.848 70.6779C29.4022 68.8145 27.6552 66.3106 25.3986 64.2433C26.1093 64.1556 26.828 64.1556 27.5387 64.2433C28.4441 64.2992 29.3443 64.4208 30.2321 64.6073C31.8276 64.9725 33.3832 65.4943 34.8762 66.165C37.9587 67.5639 40.8863 69.2813 43.6114 71.2894C45.8387 72.9796 47.7718 75.0258 49.3329 77.3454C49.5245 77.6705 49.7386 77.9818 49.9735 78.2772C51.3274 80.2425 52.594 82.2806 54.0353 84.2168C55.6205 86.6564 57.7931 88.6587 60.3538 90.0399C61.3369 91.4051 62.5846 92.5586 64.0225 93.4319C61.0526 92.9806 57.9953 92.6167 54.9817 91.947ZM122.694 70.8672C124.339 70.2994 126.042 69.8773 127.702 69.4114L128.998 69.0183C125.256 71.9299 120.859 73.9389 117.001 76.6758C114.642 78.4747 112.427 80.4558 110.377 82.6008C111.745 80.9808 113 79.2686 114.133 77.4765C114.599 76.734 115.05 76.0207 115.473 75.2054C117.484 73.1681 119.994 71.6926 122.752 70.9254L122.694 70.8672ZM115.065 55.2902C115.05 55.5667 115.05 55.8436 115.065 56.12L115.312 57.7214C115.458 58.6531 115.589 59.5848 115.72 60.5311C115.968 62.4236 116.186 64.3452 116.244 66.2669C116.164 69.9729 114.938 73.5633 112.736 76.5448C110.877 79.4598 108.683 82.147 106.199 84.5516C104.17 86.6525 101.677 88.2482 98.9195 89.2101C100.584 86.3403 102.442 83.5873 104.481 80.9704C106.471 78.9069 108.241 76.6432 109.766 74.2155C111.245 71.35 112.318 68.2926 112.954 65.1314C113.303 63.6756 113.595 62.2198 113.871 60.6621C114.294 58.9643 114.586 57.2365 114.745 55.4941L115.065 55.2902ZM105.587 67.3151C106.738 64.9486 108.134 62.709 109.751 60.633C110.598 59.5706 111.512 58.564 112.488 57.6195C113.056 57.0809 113.638 56.4985 114.25 55.9599C113.726 57.4157 113.463 58.8715 113.085 60.3273C112.706 61.7831 112.284 63.5591 111.862 65.1605C111.088 68.2802 109.825 71.2577 108.12 73.9826C105.777 77.622 101.86 80.6501 99.8221 84.5516V84.4206V83.387C100.521 80.9413 101.394 78.5246 102.181 76.108C103.117 73.1185 104.265 70.1995 105.616 67.3733L105.587 67.3151ZM89.8203 93.9123C88.2627 93.6478 86.678 93.5793 85.1034 93.7085C83.6332 93.7085 82.1836 94.0536 80.8713 94.716C79.5589 95.3785 78.4204 96.3399 77.5475 97.5227C76.5493 96.3755 75.2229 95.5624 73.7477 95.1934L72.7868 94.9314C72.2045 93.8252 71.8109 92.6296 71.6221 91.3938C71.2125 89.7105 70.9399 87.9968 70.8068 86.2694C70.6111 84.7193 70.753 83.1451 71.2229 81.655C71.6929 80.1649 72.4796 78.794 73.5293 77.6366C75.8909 75.8311 78.6189 74.5641 81.522 73.9244C84.895 73.0192 88.1791 71.8108 91.3344 70.314C91.3854 70.2866 91.4304 70.2493 91.4668 70.2043C91.5033 70.1594 91.5304 70.1076 91.5466 70.0521C91.5629 69.9966 91.5679 69.9383 91.5615 69.8808C91.5551 69.8233 91.5373 69.7677 91.5091 69.7171C91.4668 69.6334 91.3986 69.5656 91.3147 69.5236C91.2308 69.4817 91.1356 69.4678 91.0433 69.4842C89.0191 69.8313 87.0309 70.3624 85.1034 71.071L79.2799 72.9781L77.4892 73.5895C78.0523 71.1155 79.0057 68.7469 80.3136 66.5726C81.7391 64.2878 83.5292 62.2518 85.6129 60.5456C87.9256 58.6833 90.4465 57.0956 93.1251 55.8143C94.4209 55.1738 95.7311 54.5769 97.056 53.9655C98.3808 53.354 99.56 52.7135 100.856 52.1894C102.57 57.8113 103.304 63.6862 103.025 69.557C102.308 71.3329 101.686 73.1454 101.161 74.9871C100.506 77.2581 100.099 79.5728 99.6328 81.873C99.4068 79.8882 98.8662 77.952 98.0314 76.1371C97.4387 74.8756 96.6637 73.7082 95.7311 72.6724C94.8068 71.6562 93.6814 70.8432 92.4263 70.2849L92.3099 70.4304C95.8081 73.925 97.8835 78.5943 98.1333 83.5325C98.4232 86.0975 97.6968 88.6739 96.1097 90.7096L95.44 91.4084L93.9841 92.1945C92.6399 92.8677 91.2482 93.4418 89.8203 93.9123ZM109.11 100.23L107.655 99.852H107.858C109.419 99.6074 110.958 99.2374 112.459 98.7455C113.245 98.4835 114.017 98.1778 114.788 97.8575L114.876 97.9594C115.618 98.4981 116.681 98.9639 117.103 99.8083C117.215 100.019 117.274 100.254 117.274 100.493C117.274 100.731 117.215 100.966 117.103 101.177C116.71 101.788 115.851 101.599 115.254 101.497C113.158 101.177 111.076 100.798 109.023 100.274L109.11 100.23ZM119.01 110.698C113.695 111.338 108.327 111.416 102.996 110.931C105.085 110.126 107.065 109.065 108.892 107.771L111.804 105.748C115.821 106.46 119.895 106.797 123.975 106.752C125.864 106.845 127.758 106.733 129.624 106.418L130.25 106.243C126.888 108.539 123.06 110.06 119.039 110.698H119.01ZM130.657 104.874C129.986 105.022 129.305 105.12 128.619 105.166C126.697 105.34 124.746 105.326 122.796 105.34C119.403 105.34 115.997 105.34 112.605 105.166L113.493 104.583C114.235 104.117 114.948 103.666 115.807 103.258C116.711 102.811 117.532 102.216 118.239 101.497C118.354 101.181 118.399 100.843 118.37 100.507C118.277 99.7742 117.962 99.0873 117.467 98.5383C116.973 97.9893 116.323 97.6045 115.604 97.4353L116.885 96.8385C119.628 97.2765 122.28 98.1669 124.732 99.4734C126.115 100.158 127.469 100.929 128.808 101.672C130.148 102.414 131.472 102.996 132.652 103.826C132.018 104.25 131.34 104.602 130.628 104.874H130.657Z" fill="#E3B6AA"/>
</svg>
