<svg width="153" height="153" viewBox="0 0 153 153" fill="none" xmlns="http://www.w3.org/2000/svg">
<path d="M76.5 153C118.75 153 153 118.75 153 76.5C153 34.2502 118.75 0 76.5 0C34.2502 0 0 34.2502 0 76.5C0 118.75 34.2502 153 76.5 153Z" fill="#EDE9E1"/>
<path d="M52.09 84.48H49.38V87.38H52V87.86H49.36V92H48.83V84H52.07L52.09 84.48Z" fill="#E3B6AA"/>
<path d="M54.25 84V91.52H56.48V92H53.72V84H54.25Z" fill="#E3B6AA"/>
<path d="M65.23 88C65.2359 88.822 64.9976 89.6273 64.5452 90.3137C64.0929 91.0001 63.4468 91.5367 62.6891 91.8554C61.9313 92.1741 61.0959 92.2606 60.2889 92.1039C59.4819 91.9472 58.7397 91.5543 58.1563 90.9751C57.5729 90.3959 57.1747 89.6565 57.0121 88.8507C56.8495 88.0449 56.9299 87.2089 57.2431 86.4489C57.5563 85.6888 58.0882 85.0389 58.7713 84.5815C59.4544 84.1242 60.2579 83.88 61.08 83.88C61.625 83.8706 62.1664 83.9705 62.6722 84.1739C63.178 84.3772 63.6379 84.6799 64.0247 85.0639C64.4116 85.448 64.7175 85.9057 64.9246 86.41C65.1316 86.9142 65.2354 87.4549 65.23 88V88ZM64.67 88C64.6621 87.2893 64.444 86.5969 64.0432 86.0099C63.6425 85.423 63.0769 84.9678 62.4179 84.7018C61.7588 84.4357 61.0357 84.3707 60.3398 84.5149C59.6439 84.6591 59.0062 85.0061 58.5071 85.5121C58.008 86.0181 57.6699 86.6605 57.5353 87.3584C57.4008 88.0563 57.4758 88.7784 57.7509 89.4337C58.0261 90.089 58.489 90.6482 59.0815 91.0408C59.6739 91.4334 60.3693 91.6419 61.08 91.64C61.5576 91.6469 62.0317 91.5571 62.4737 91.376C62.9157 91.1949 63.3164 90.9262 63.6518 90.5862C63.9872 90.2461 64.2504 89.8416 64.4253 89.3972C64.6003 88.9527 64.6836 88.4775 64.67 88V88Z" fill="#E3B6AA"/>
<path d="M66.62 84L68.83 90.78L71.72 83.56L74.43 90.78L76.94 84H77.51L74.43 92.29L71.72 85L68.72 92.26L66.02 83.97L66.62 84Z" fill="#E3B6AA"/>
<path d="M81.23 84L83.43 90.78L86.32 83.56L89.03 90.78L91.54 84H92.12L89 92.29L86.32 85L83.32 92.26L80.62 83.97L81.23 84Z" fill="#E3B6AA"/>
<path d="M93.9 84V92H93.37V84H93.9Z" fill="#E3B6AA"/>
<path d="M97.75 84.48V92H97.22V84.48H95.15V84H99.82V84.48H97.75Z" fill="#E3B6AA"/>
<path d="M101.6 87.39H106.45V84H107V92H106.48V87.87H101.6V92H101.07V84H101.6V87.39Z" fill="#E3B6AA"/>
<path d="M59.9 91.55V91.64L59.8 91.82L59.73 91.87H59.63L58.89 92.87L58.79 93.04L58.64 93.19L58.28 93.63L58.18 93.81H58.1H58.05L57.59 94.38L57.49 94.55H57.44L57.29 94.77L57.11 94.99L56.94 95.26L56.7 95.56L56.5 95.86L56.2 96.11L55.98 96.5L55.86 96.65L55.66 96.84L55.44 97.04L55.17 97.31L54.92 97.51L54.7 97.78H54.75V97.88L54.7 97.96L54.6 98.01V98.13H54.55L54.33 98.35H54.23L53.74 98.92L53.57 99.14L53.47 99.36L53.27 99.51L53.12 99.63L52.75 100.08L52.63 100.2L52.38 100.5L52.31 100.62L51.97 100.99L51.79 101.21L51.33 101.73L51.18 101.92V102.02L51.04 102.24L50.96 102.34L50.64 102.51L50.59 102.66L50.42 102.78L50.22 102.93H50.13L49.9 103.2L49.68 103.45L49.49 103.72L49.19 104.11L49.14 104.33L49.09 104.38H48.85L48.55 104.53L47.71 105.39V105.49L47.54 105.59L47.17 105.93C47.04 106.08 46.9 106.2 46.75 106.35L46.68 106.47L46.5 106.65L46.31 106.79L46.26 106.87L45.86 107.24V107.29L45.74 107.38V107.48L45.24 107.93L45.17 107.98L45.1 108.07L44.83 108.37H44.75L44.56 108.52L43.32 109.75L43.18 109.85L42.68 110.34L42.51 110.47L42.24 110.74L42.09 110.81L41.7 111.23V111.28H41.6L41.55 111.35L41.47 111.42L41.4 111.52L41.52 111.47L41.42 111.57H41.3V111.49L41.15 111.64L40.93 111.76L40.76 111.96L40.71 112.06L40.53 112.23L40.09 112.45L39.94 112.57H40.02V112.7H39.9H39.75L39.28 113.1V113.32H39.11L38.79 113.66V113.71L38.61 113.98L38.37 114.13L38.17 114.45L37.9 114.74H37.75L37.31 114.92L37.14 115.06L36.87 115.16L36.55 115.26L36.45 115.33L36.01 115.6L35.64 115.85L35 117L34.87 117.12L34.6 117.32L34.48 117.41L34.36 117.73L34.21 117.78L33.92 117.73L33.59 117.78L32.78 117.88L32.02 117.93L31.94 117.98H31.87L31.79 117.93C31.15 117.93 30.51 117.76 29.87 117.76L29.7 117.69H29.51V117.64C29.4608 117.627 29.4092 117.627 29.36 117.64C29.29 117.59 29.29 117.47 29.17 117.32L28.9 117.1L28.75 116.93L28.6 116.54V116.09L28.55 115.9V115.7V115.48L28.45 115.35V115.28L28.57 115.16V115.06V114.89V114.79V114.62V114.47V113.95V113.75V113.61V113.48V113.24V113L28.65 112.8L28.72 112.68V112.51V112.46V112.16V112.06L28.81 111.6V111.5V111.4V111.18V111.13L28.91 110.64V110.59V110.37V110.42V110.32V110.27V110.32V110.18V110L28.96 109.81V109.73V109.54L29.18 109.24V109.14L29.13 109.04L29.18 108.94L29.25 108.82V108.67L29.47 107.96V107.88L29.62 107.39L29.89 106.5L30.02 106.11V106.01V105.93V106.01H29.95V105.94L30.03 105.84H30.18L30.23 105.74V105.69L30.3 105.47V105.37V105.29H30.37L30.44 105.19L30.69 104.55L30.81 104.01L30.91 103.78L30.98 103.59L31.06 103.22L31.16 102.95L31.23 102.77L31.43 102.48L31.5 102.26L31.57 102.02L31.74 101.67C31.74 101.57 31.82 101.48 31.86 101.35L31.94 101.08L32.01 100.86V100.66L32.23 100.02L32.28 99.8L32.35 99.58V99.53L32.42 99.29L32.32 98.94V98.79L32.42 98.42L32.67 98.13V97.96V97.89V97.81V97.63L32.77 97.49V97.39H32.82L32.89 97.29L32.82 96.97L32.74 96.82V96.75V96.58L32.87 96.38L32.99 95.96L33.14 95.74L33.31 95.66L33.43 95.74L33.53 95.86C33.5496 95.8522 33.5707 95.8487 33.5918 95.8496C33.6129 95.8505 33.6335 95.8558 33.6524 95.8653C33.6713 95.8747 33.6879 95.888 33.7013 95.9044C33.7147 95.9207 33.7245 95.9396 33.73 95.96C33.7562 96.1055 33.7562 96.2545 33.73 96.4V96.53L33.78 96.8V97.04L33.73 97.09H33.78L33.73 97.19V97.31H33.8V97.36H33.75L33.67 97.53H33.6V97.66H33.53L33.45 97.74C33.4238 97.8739 33.3836 98.0046 33.33 98.13V98.26V98.48L33.21 98.67L33.11 98.82L32.89 99.39V99.46V99.51V99.73L32.69 100.03L32.62 100.2V100.3L32.55 100.45H32.67L32.72 100.54L32.62 100.69H33V100.56V100.66L32.93 100.78V100.96L32.88 101.01H32.83V101.08H32.91V101.18L32.79 101.3L32.64 101.67L32.52 102.01L32.44 102.26L32.17 102.9V103.05L31.61 104.52V104.75L31.53 104.97V105.04L31.36 105.41L31.28 105.56V105.66L31.04 106.27L30.94 106.37V106.52L30.85 106.57V106.71L30.77 106.89V107.06V107L30.67 107.27L30.59 107.49V107.54L30.52 107.79V107.94L30.37 108.46V108.75L30.27 109V109.1L30.15 109.25C30.1616 109.306 30.1616 109.364 30.15 109.42L30.08 110.01L29.98 110.21L29.9 110.46V110.68L29.82 111.07V111.12L29.74 111.54C29.7469 111.64 29.7469 111.74 29.74 111.84L29.69 112.03V112.3V112.72V113.07V113.26V113.51V113.76L29.84 114.12V114.32V114.39V114.59V114.76V115V114.95V115.03V115.12V115.05V115.12V115.22V115.27V115.34V115.79V115.89V116.08L29.96 116.35L30.18 116.85L30.26 116.99L30.43 117.14C31.0402 117.423 31.7301 117.483 32.38 117.31L32.65 117.21H32.72H32.99H33.09C33.668 117.015 34.227 116.767 34.76 116.47L35.01 116.33L35.23 116.2L35.38 116.1L35.53 116.03L36.36 115.51L36.48 115.31L36.56 115.24L36.78 115.07L37.05 115.02L37.22 114.9L37.35 114.8L37.57 114.36L37.96 114.11L38.16 114.01L38 114L38.18 113.83V113.78L38.55 113.46V113.34L38.69 113.02L39.01 112.8L39.16 112.7L39.51 112.62H39.58L39.92 112.35C40.14 112.15 40.37 111.96 40.59 111.78L40.71 111.59L41.52 110.92L42.31 110.18L42.63 109.91L43.12 109.4L43.34 109.2L43.74 108.83L43.98 108.68L44.58 108.09L44.75 107.87L44.99 107.6L45.34 107.35L45.61 107.08L46.42 106.32V106.2L46.76 105.9L46.86 105.83V105.78L47.03 105.65L47.11 105.53L47.3 105.43L47.4 105.33L47.5 105.19L47.57 104.97L47.97 104.65L48.24 104.47L48.68 104.03V103.93L48.83 103.83C49.15 103.49 49.47 103.17 49.77 102.83L49.96 102.63L50.06 102.46L50.14 102.31H50.23V102.21L50.33 102.12L50.38 102.04H50.5L50.55 101.99C50.581 101.936 50.6217 101.889 50.67 101.85V101.8L50.74 101.6L50.86 101.53V101.43L50.99 101.28V101.18H51.16V101.1L51.7 100.43L51.82 100.31L52.34 99.69L52.56 99.42L52.81 99.18L52.98 98.98L53.08 98.81L53.25 98.59L53.47 98.29L53.67 98.09L53.74 97.99L53.86 97.84L53.96 97.75L54.45 97.15L54.63 97.06L54.68 96.98L55.37 96.19L55.45 96.04L55.6 95.87H55.67L56.19 95.26V95.11H56.26L56.44 94.92L56.51 94.77L56.71 94.52L56.8 94.45L57.35 93.81V93.76L57.5 93.61L57.6 93.42L57.67 93.29H57.77V93.22L57.87 93.1V93.05H57.94L58.06 92.83L58.26 92.58L58.41 92.49L58.56 92.29L58.68 92.12V92.04L59.05 91.62V91.55L59.13 91.42L59.2 91.37L59.3 91.25V91.2H59.38L59.5 91.08V91.03L59.72 90.68L59.92 90.46L60.09 90.29L60.16 90.12L60.31 89.94V89.85L60.56 89.57L60.65 89.5V89.43L61.02 88.94H61.12L61.17 88.84L61.31 88.66L61.41 88.54L61.56 88.34L61.64 88.24V88.14L61.79 87.97L61.88 87.9L62.28 87.41L62.5 87.09L62.55 86.89H62.63H62.7L62.8 86.99V87.07L62.75 87.17L62.63 87.26V87.39H62.58V87.44L62.36 87.73H62.28L62.04 88.07L61.94 88.22L61.77 88.44L61.57 88.71L61.5 88.94L61.3 89.11L61.18 89.26L60.84 89.72V89.77L60.74 89.9L60.64 90.07L60.57 90.19L60.5 90.27H60.42L60.2 90.54L59.98 90.86L59.83 91.1L59.51 91.5C59.51 91.5 59.46 91.5 59.46 91.57V91.62L59.39 91.72L59.29 91.8L59.22 91.92H59.17L59.9 91.55Z" fill="#E3B6AA"/>
<path d="M57.67 109.51L57.42 109.71L57.08 109.86H56.85L56.73 109.93V109.98L56.65 110.03L56.33 110.15L56.11 110.25L56.03 110.3H55.86L55.49 110.5L55.34 110.57L54.98 110.82L54.78 110.89L54.63 110.96L54.36 111.11L54.14 111.21H53.99L53.6 111.28L53.25 111.45H52.96H52.54L52.27 111.52L51.8 111.42C51.5674 111.367 51.3636 111.228 51.23 111.03L51.14 110.93V110.78C51.1116 110.558 51.1356 110.332 51.21 110.12V110.02L51.39 109.53L51.58 109.04L51.63 108.86L51.81 108.57L51.98 108.37V108.27L52.12 108.15C52.1751 108.066 52.2352 107.986 52.3 107.91L52.49 107.61L52.57 107.44L52.64 107.29L52.72 107.22L52.79 106.97L53 107L53.15 106.92L53.25 106.78L53.47 106.58L53.94 105.79L54.06 105.42L54.33 105.08L54.5 104.93L54.6 104.73L54.7 104.66V104.41V104.29L54.82 104.09L54.99 103.97H55.07H55.12V103.92L55.29 103.75L55.46 103.65C55.5019 103.585 55.5599 103.533 55.6283 103.498C55.6967 103.463 55.7732 103.446 55.85 103.45C55.85 103.45 55.9 103.45 55.93 103.5L56 103.45H56.14H56.34L56.51 103.57V103.69V103.96L56.34 104.23L56.1 104.5L56.02 104.58L55.92 104.65H55.87L55.73 104.7L55.31 105.09V105.22L54.97 105.56C54.9475 105.603 54.9126 105.637 54.87 105.66V105.81L54.65 106L54.47 106.25L54.28 106.45L54.23 106.55L54.05 106.67L53.96 106.84L53.91 106.92L53.61 107.26L53.24 107.68L53.07 107.92L52.92 108.15L52.65 108.61C52.45 108.83 52.43 108.86 52.41 108.91L52.23 109.35V109.55L52.04 109.97L51.89 110.48V110.63L51.84 110.93C51.89 111.15 51.91 111.17 51.91 111.2L52.01 111.25H52.16H52.23H52.41L52.55 111.2H52.7H52.8H52.92L53.44 111.08H53.51C53.64 111.08 53.78 111.01 53.93 110.96L54.06 110.88L54.35 110.71L54.57 110.59L55.06 110.46L55.46 110.32L55.68 110.27L56.54 109.85V109.75H56.69L57.13 109.53V109.46L57.33 109.36H57.41L57.48 109.26L57.63 109.21L57.82 109.12L58.07 108.97L58.29 108.84L58.56 108.65L58.64 108.57L58.93 108.4L59.05 108.35L59.15 108.28L59.67 107.98H59.74L59.92 107.86H60.04L60.16 107.79C60.21 107.79 60.21 107.79 60.24 107.79L60.36 107.67L60.53 107.6L60.63 107.5L60.8 107.4L61.05 107.28L61.17 107.2C61.37 107.08 61.59 106.93 61.86 106.78V106.69H62H62.08L62.15 106.84L62.08 106.94L62 106.99L61.86 107.06V107.13H61.81V107L61.49 107.17H61.42L60.66 107.64L60.44 107.81L60.21 108.01L59.99 108.08L59.84 108.15C59.38 108.47 58.93 108.77 58.52 109.02L58.42 109.14L58.34 109.19L58.05 109.29L57.97 109.34L57.67 109.51ZM59.78 98.19L59.59 98.54L59.49 98.66L59.42 98.76L59.17 98.81H58.95L58.75 98.88L58.55 99.03L58.45 99.08L58.33 99.27L58.08 99.35L57.88 99.72L57.64 99.79L57.54 99.91L57.37 100.11L57.1 100.28V100.08L57.2 100.01C57.2092 99.9604 57.2092 99.9096 57.2 99.86L57.5 99.44L57.45 99.25L57.62 98.88L57.69 98.73L57.94 98.44L58.11 98.24L58.38 97.97L58.48 97.85L58.68 97.73L58.82 97.53L58.92 97.43H59L59.12 97.38V97.43L59.29 97.26L59.54 97.19L59.74 97.38L59.98 97.48L59.91 97.75V97.87L59.78 98.19Z" fill="#E3B6AA"/>
<path d="M61.83 107C61.53 107.22 61.26 107.47 60.99 107.69L60.94 107.74L60.77 107.88L60.65 108.06L60.57 108.18H60.45V108.28L60.33 108.36V108.43H60.23L59.81 108.9V109V109.05L59.71 109.24L59.64 109.34L59.56 109.46C59.5134 109.539 59.4888 109.629 59.4888 109.72C59.4888 109.811 59.5134 109.901 59.56 109.98L59.63 110.08L59.76 110.15H59.9C60.1675 110.202 60.4425 110.202 60.71 110.15L61.03 110.03H61.23H61.55L61.94 109.94H62.14L62.36 109.86L63 109.68H63.1L63.49 109.56L63.66 109.49L63.89 109.39L64.03 109.27L64.62 109.14L64.82 109.07L64.94 108.97L65.41 108.82L67.01 108.31L67.77 108.01H67.85L68 108H68.17L68.81 107.78L69.1 107.73C69.4 107.63 69.72 107.54 70.04 107.41L70.75 107.14C70.8026 107.133 70.8534 107.116 70.9 107.09L71.05 107.01L72.05 106.62C72.42 106.45 72.81 106.23 73.23 106.01L73.31 105.93H73.38H73.53L73.6 106.05L73.53 106.12L73.23 106.37L72.96 106.47C72.3241 106.862 71.6548 107.196 70.96 107.47V107.54L70.91 107.59H70.72L70.35 107.71L70.08 107.84H69.98L69.76 107.91L69.14 108.16H69.09L68.42 108.46L68 108.6L67.9 108.65L67.78 108.73L67.51 108.83H67.43H67.31H67.16L66.89 108.93L66.1 109.2L65.88 109.3H65.78L64.95 109.69L63.82 110.04L63 110.31L62.36 110.55L61.65 110.85L61.21 110.97L60.64 111.02H60.47H60.39L60 111L59.56 110.82L59.19 110.7L59.07 110.58V110.45L59.02 110.33V110.18L59 110C58.9853 109.86 58.9853 109.72 59 109.58L58.95 109.53V109.46V109.41H59.03V109.26H59V109.19V109.11L59.05 108.93L59.25 108.71L59.3 108.61L59.39 108.47L59.49 108.4L59.71 108.16L59.76 108.08L59.96 107.89L60.11 107.66H60.18L60.38 107.46L60.53 107.41V107.36L60.61 107.24L60.73 107.14H60.93C61.118 106.988 61.3151 106.848 61.52 106.72V106.72H61.57L61.74 106.54H61.82C61.9249 106.486 62.0224 106.419 62.11 106.34L62.26 106.2L62.43 106.15L62.53 106.07L63.71 105.36L63.88 105.21L64.42 104.94L64.62 104.82L65.23 104.5L65.92 104.18L66.1 104.08L66.32 103.96L66.51 103.76L66.64 103.69H66.93L67.03 103.59H67.1V103.54V103.46H67.18V103.41L67.3 103.36V103.31V103.36H67.37H67.45H68H68.17H68.46V103.41L68.75 103.26H69.15L69.22 103.36C69.22 103.36 69.3 103.36 69.3 103.41L69.42 103.56V103.73L69.57 103.88V104.03V104.15L69.37 104.37L69.07 104.57H69L68.65 104.47L68.34 104.27H68.16L68.09 104.49L67.94 104.62L67.77 104.47V104.37L67.38 104.47L66.67 104.84L66.37 104.91L66.1 105.06H65.93L65.36 105.38H65.24L65.12 105.51H64.97L64.67 105.63L64.18 105.9L64.11 106L63.76 106.17H63.69L63.42 106.34L63.27 106.51L63.1 106.61L62.85 106.73V106.78L62.53 107.03L62.29 107.2L62.16 107.32L61.83 107Z" fill="#E3B6AA"/>
<path d="M80.24 96.3H80.63L80.75 96.17L81.42 95.26L81.49 95.19L81.79 94.79L81.91 94.67L82.08 94.45H82.16L82.43 94.08V94L82.53 93.9L82.58 93.81V93.73H82.51L82.56 93.66H82.65V93.74L82.75 93.61L82.88 93.49L83 93.32V93.25L83.1 93.1L83.45 92.88L83.64 92.65L83.74 92.58H83.82L83.96 92.26L84.14 92.09H84.48L84.68 92.43V92.77L84.34 93L84.09 93.22L83.92 93.49L83.8 93.66V93.81L83.01 94.55L82.77 94.72L81.77 95.78L81.23 96.44H81.53L81.62 96.36H81.7L81.77 96.44L82.39 96.39H84.04L84.75 96.32H85.49L85.56 96.39H85.76V96.46L86.4 96.51L86.62 96.46L86.97 96.54L87.38 96.49H87.56H87.78L88.07 96.57H88.25H88.44L89.06 96.74L89.25 96.79H89.57L89.77 96.88L90.31 96.96H90.41L90.56 97.09C90.6597 97.1094 90.7569 97.1396 90.85 97.18V97.18L91.49 97.43V97.48L91.86 97.65L91.93 97.7C91.9457 97.7072 91.9628 97.7109 91.98 97.7109C91.9973 97.7109 92.0143 97.7072 92.03 97.7H92.16L92.45 97.84L92.52 97.97L92.75 98.14H92.84L92.94 98.24V98.29C93.0783 98.3861 93.2087 98.4931 93.33 98.61C93.33 98.61 93.33 98.61 93.33 98.66H93.4L93.57 98.91L93.62 98.96H93.77L93.82 99.01V99.21L93.9 99.38L94.02 99.82V100.02C94.0136 100.043 94.0136 100.067 94.02 100.09C94.0337 100.139 94.0337 100.191 94.02 100.24L93.95 100.39L93.83 100.24V100.17C93.8203 100.12 93.8203 100.07 93.83 100.02L93.66 99.68L93.48 99.23L93.43 99.14L93.28 98.92L93.11 98.72L92.83 98.48L92.74 98.43L92.44 98.21C92.3742 98.1885 92.313 98.1546 92.26 98.11H92.19H92.14L91.94 97.99L91.75 97.92L91.6 97.87L91.55 97.79H91.5L91.42 97.74L91.03 97.59H90.56L90.39 97.54L90.09 97.4L89.72 97.3C89.33 97.2 88.91 97.15 88.49 97.08H88.44L88.03 97.01H87.83H87.58H87.41L86.97 96.93H86.75H86.6H86.52L86.23 96.88C86.03 96.88 85.81 96.88 85.64 96.88H85.54H85.47C85.32 96.88 85.19 96.88 85.07 96.88C84.28 96.88 83.5 96.88 82.71 96.88H82.54L82.36 96.95V97.03H82.27L82 97.18H81.9V97.25H81.82L81.45 97.4H80.25C80.1 97.59 79.93 97.77 79.81 97.94L79.73 98.09L79.58 98.21C79.44 98.38 79.29 98.55 79.16 98.73V98.8L78.82 99.19L78.45 99.76L78.23 100.03L77.81 100.5V100.55L77.02 101.61L76.85 101.83L76.36 102.44L76.28 102.59L76.16 102.71L76.01 102.94L75.84 103.23L75.74 103.35L75.57 103.55L75.37 103.75L75.22 103.94L75.15 104.04L75.07 104.21L74.7 104.73L74.6 105.02L73.45 106.62L73.05 107.06L72.54 107.61L72.41 107.73L72.17 108L72.02 108.25L71.97 108.42L71.72 108.76L71.53 109.21L71.35 109.45L71.01 109.89L70.86 110.41V110.56V110.68L70.66 111V111.32L70.56 111.59L70.51 111.72L70.56 111.81H70.68H70.83L71.27 111.71L71.42 111.66L71.47 111.59L71.89 111.49L72.11 111.39L72.31 111.32L72.45 111.22H72.65L72.87 111.15L72.99 111.08H73.09H73.17L73.81 110.76L74.27 110.57H74.32L74.4 110.45H74.47H74.62H74.69L74.77 110.37H75L75.71 110.05L75.96 109.91H76.06L77.22 109.37L77.46 109.22L77.63 109.15L77.93 109.03L78.32 108.83L78.44 108.68L78.71 108.53L79.01 108.44L79.35 108.31L80.02 107.97L80.14 107.9L80.24 107.83L80.59 107.63H80.66V107.58H80.81L80.93 107.49L81.01 107.41H81.13L81.18 107.53V107.58V107.65L81.1 107.73H80.91L80.83 107.81L80.17 108.25L79.97 108.35L79.7 108.52L79.33 108.72L79.06 108.84L78.81 108.91L78.47 109.08L78.3 109.18L78.22 109.26L77.95 109.4L77.63 109.6L77.21 109.77H77.09L76.87 109.97L76.65 110.04L76.4 110.14H76.3L76.16 110.26L76.03 110.33H75.91L75.69 110.5H75.61H75.42H75.25L75.1 110.57L74.63 110.82L74.38 110.94L74.04 111.09H74L73.7 111.24L73.41 111.51L73.16 111.66H73.04V111.71V111.78H72.94H72.79V111.68H72.7L72.47 111.82L72.4 111.9L71.71 112.14L70.8 112.41H70.48H70.41L70.23 112.36H70.14L69.96 112.29L69.89 112.14V111.92C69.8801 111.787 69.8801 111.653 69.89 111.52C69.9268 111.264 70.001 111.015 70.11 110.78V110.78V110.6L70.18 110.46V110.41V110.28L70.23 110.21L70.35 110.06V109.99L70.5 109.79L70.74 109.35V109.27L71 109L71.05 108.85L71.13 108.75L71.27 108.58L71.42 108.36L71.5 108.19L71.59 108.04L71.72 107.94L71.89 107.79L72.12 107.6L72.24 107.42V107.32L72.29 107.2L72.46 107.1L72.78 106.66V106.59L72.85 106.51C72.95 106.39 73.05 106.24 73.17 106.12L73.32 105.9L73.52 105.63L73.66 105.4L73.81 105.21L73.89 105.16V105.08L73.98 104.96C74.034 104.896 74.0841 104.83 74.13 104.76V104.76L74.21 104.66V104.61L74.29 104.51L74.39 104.41V104.28L74.78 103.77L74.88 103.72V103.6L75.15 103.26L75.22 103.21L75.32 103.01L75.52 102.84L76.43 101.53L76.55 101.43L76.95 100.92V100.87C77.0619 100.746 77.1623 100.612 77.25 100.47V100.47L77.3 100.4L77.69 99.88V99.76L78.09 99.31L78.16 99.26L78.28 99.12V99.02L78.84 98.25L78.99 98.18L79.16 98.01L79.26 97.92L79.34 97.82H79.41L79.46 97.75V97.66V97.58L79.68 97.29L80 97H79.5L79.21 97.05L78.47 97.1L77.71 97.2H77.51H77.29L76.65 97.29L76.45 97.34L75.2 97.71L74.98 97.84H74.88H74.58H74.24L73.79 98.16L73.6 98.23L73.11 98.33L72.54 98.21L72.34 97.99V97.74L72.39 97.57C72.3927 97.5409 72.4012 97.5127 72.4149 97.487C72.4287 97.4612 72.4474 97.4384 72.47 97.42H72.52V97.37V97.32V97.42C73.0008 97.2075 73.504 97.0498 74.02 96.95L74.42 96.78H74.81L74.96 96.83L75.96 96.7L76.62 96.62H76.67L77.11 96.57H77.18H77.33H77.45L78.07 96.45L78.2 96.4H78.35H78.76H78.84H79.01C79.1309 96.3687 79.2551 96.3519 79.38 96.35V96.35H79.7L80.24 96.3Z" fill="#E3B6AA"/>
<path d="M87.06 106.68L86.96 106.88C86.96 106.93 86.96 107 86.96 107.08L86.82 107.32L86.64 107.57L86.42 107.72L86.18 107.96L86.08 108.09L85.95 108.21L85.76 108.36C85.3008 108.727 84.8162 109.061 84.31 109.36V109.36H84.23L83.96 109.54V109.59H83.86V109.67H83.77L83.57 109.82L83.45 109.94H83.28L83.18 110.06L83.01 110.19H82.91H82.64L82.54 110.24H82.39H82.34C81.95 110.39 81.61 110.53 81.26 110.63L81.16 110.71H81.09L80.99 110.83H80.92H80.74H80.57H80.1L79.66 110.78H79.56C79.4334 110.765 79.3091 110.735 79.19 110.69C79.09 110.61 78.58 110.37 78.55 110.19V109.97H78.48V109.82L78.65 109.38L78.82 108.96L78.92 108.81L79.21 108.51L79.39 108.39L79.44 108.32L79.85 108.02L80.22 107.65L80.3 107.53L80.4 107.43L80.94 107.01L81.08 106.89H81.21H81.26L81.45 106.76L81.5 106.69V106.74L82.09 106.3L82.21 106.17H82.28L82.51 106.02L82.68 105.82L82.9 105.63L83.24 105.5L83.56 105.23L83.76 105.13L83.98 105.01C84.23 104.86 84.45 104.69 84.67 104.57L84.33 104.52C84.1744 104.546 84.0175 104.562 83.86 104.57H83.79H83.72H83.42C83.1688 104.614 82.9149 104.641 82.66 104.65V104.65H82.1L81.8 104.58L81.66 104.48L81.58 104.36V104.18L81.77 103.89L81.97 103.81H82.22H82.46L82.66 103.88L83.03 103.98C83.4254 103.981 83.8201 104.014 84.21 104.08L84.48 104.03H84.87L85.34 103.95H85.42L85.83 103.9C85.9087 103.864 85.9854 103.824 86.06 103.78L86.28 103.63L86.47 103.53H86.55L86.67 103.45H86.87H87.09C87.2624 103.425 87.4376 103.425 87.61 103.45H87.78L87.85 103.53C87.9492 103.556 88.0413 103.604 88.12 103.67L88.81 103.6L89.1 103.52H89.47L89.87 103.39H90.01H90.26H90.75H90.95H91.24C91.3464 103.4 91.4535 103.4 91.56 103.39H91.98H92.08H92L92.05 103.44H92.2L92.35 103.39H92.52H92.74H92.91L93.06 103.46H93.13H93.23H93.43H93.53C93.763 103.495 93.9934 103.545 94.22 103.61L94.32 103.69H94.41L94.49 103.79C94.6366 103.869 94.777 103.96 94.91 104.06L94.98 104.13H95.1L95.18 104.28L95.28 104.42V104.5L95.13 104.62L95.05 104.79L94.83 105.19L94.73 105.33C94.73 105.33 94.68 105.33 94.68 105.4L94.59 105.55H94.44V105.35L94.49 105.28V105.23C94.5275 105.118 94.5779 105.011 94.64 104.91V104.79L94.82 104.34C94.82 104.34 94.82 104.34 94.82 104.25L94.75 104.12L94.5 104L94.31 103.85L93.94 103.75C93.402 103.656 92.856 103.615 92.31 103.63H91.94H91.65C91.4352 103.637 91.2212 103.66 91.01 103.7C89.92 103.77 89.16 103.87 88.45 103.97H88.4L88.18 104.02L88.05 104.1H87.66C87.27 104.15 86.87 104.23 86.43 104.27L86.23 104.35H86.04L85.59 104.4L85.47 104.47C85.6884 104.54 85.9022 104.623 86.11 104.72H86.16L86.23 104.79L86.33 104.86L86.53 104.98L86.82 105.3L86.9 105.48L87.02 105.77V106.21C87.0574 106.364 87.0709 106.522 87.06 106.68V106.68ZM86.47 106.51V106.36L86.56 106.14V105.8L86.44 105.56L86.29 105.41L86.12 105.29L85.92 105.16L85.75 105.09L85.52 105.01L85.33 104.89L85.18 104.84H85.13C84.81 105.03 84.52 105.28 84.07 105.58L83.85 105.75L83.68 105.9L82.79 106.41L82.55 106.59L82.37 106.68L81.88 107L81.75 107.1L81.39 107.29L81.09 107.49L80.82 107.66L80.7 107.76L80.35 108.01L80.08 108.33L79.85 108.63L79.73 108.8C79.73 108.8 79.73 108.8 79.68 108.8C79.515 108.982 79.383 109.192 79.29 109.42V109.47V109.57V109.69V109.84V109.91C79.2904 110.085 79.3584 110.254 79.48 110.38H79.53L79.68 110.48H79.83C80.4417 110.541 81.0587 110.441 81.62 110.19C81.9818 110.08 82.3359 109.947 82.68 109.79H82.75L83.05 109.65L83.24 109.45L83.66 109.23H83.76H83.81L84.57 108.72L84.65 108.64C84.85 108.49 85.05 108.32 85.25 108.15L85.32 108.05L85.37 107.97L85.52 107.85L85.66 107.68L85.74 107.55H85.84L85.89 107.45L85.96 107.38V107.3H86C86.19 107.058 86.348 106.792 86.47 106.51V106.51ZM87.47 103.83C87.29 103.73 86.97 103.83 86.73 103.95L87.47 103.83Z" fill="#E3B6AA"/>
<path d="M93.24 108.43L93.19 108.53L93.38 108.36L93.73 108.11L93.83 108.04L94.03 107.96L93.93 107.86H94.08L94.52 107.45H94.6L94.99 107.05L95.43 106.78L95.85 106.46H95.9L96.36 106.09L97.05 105.6L97.49 105.31L97.61 105.18H97.71L97.93 105.03L98.42 104.74L98.62 104.54L98.77 104.44L99.13 104.29L99.4 104.05L99.68 103.9L100.19 103.73L100.41 103.63C100.59 103.53 100.88 103.38 101.23 103.23L101.37 103.11L101.82 102.94L102.26 102.79L102.33 102.74L102.56 102.62L102.83 102.52L103 102.45H103.32C103.685 102.332 104.067 102.275 104.45 102.28L104.6 102.23L104.7 102.33C104.81 102.374 104.91 102.442 104.99 102.53C105.005 102.54 105.017 102.553 105.026 102.569C105.035 102.584 105.04 102.602 105.04 102.62L105.21 102.82L105.16 103.46L104.87 104.05L104.57 104.15H104.3L104.15 103.98V103.73L104.03 103.83V103.71H104.08V103.59V103.42L104.03 103.1L103.93 102.98H103.56L103.22 103.13H103.1H102.9L102.63 103.25H102.48L101.48 103.45C101.01 103.64 100.62 103.84 100.48 103.91L100.33 103.99L100.21 104.11L99.21 104.63L98.84 104.85L98.7 105L98.23 105.24L98.1 105.32L97.88 105.49L97.51 105.74L97.37 105.91L96.65 106.38L95.59 107.26L95.45 107.48L95.27 107.61L94.95 107.95L94.66 108.22L94.56 108.27L94.36 108.39L94.19 108.57V108.62L93.99 108.79L93.77 109.03L93.65 109.16L93.55 109.23L93.3 109.48L93.2 109.65L93.1 109.72L93.01 109.85L92.76 110.07L92.34 110.49L92.22 110.68L92.12 110.81L92 111.03V111.17V111.22L91.95 111.35L91.81 111.49L91.41 111.79L91.17 111.96L90.94 111.91L90.82 111.74C90.7944 111.704 90.7767 111.663 90.7681 111.62C90.7595 111.577 90.7601 111.533 90.77 111.49V111.39L90.82 111.34L90.89 111.05V110.95L90.96 110.78L91.06 110.48L91.24 110.23L91.34 110.15L91.41 110.03V109.98L91.63 109.81H91.68L91.76 109.76L92.05 109.34L92.23 109.09H92.3L92.42 108.84L92.57 108.47L92.74 108.33V108.18L93.01 107.83L93.09 107.78L93.41 107.29V107L93.82 106.49L94.07 106.07L94.17 105.92L94.29 105.7V105.63L94.34 105.58L94.51 105.33V105.26L94.65 105.01H94.8H94.88L95.02 104.84L95.1 104.67V104.55V104.47L95 104.42L95.08 104.35V104.4L95.16 104.3L95.06 104.42C94.94 104.54 94.84 104.42 94.84 104.3L94.89 104.25V104.17L94.96 104.05V103.98H94.84V103.91H94.94H94.89H94.94H94.89V103.81L94.99 103.66L95.11 103.74L95.19 103.62V103.52V103.44H95.32V103L95.42 102.9H95.55H95.72H95.84H95.94V102.85L96.04 102.78H96.14H96.21H96.26H96.14C96.2164 102.801 96.286 102.842 96.3421 102.898C96.3981 102.954 96.4388 103.024 96.46 103.1V103.1V103.17C96.4044 103.55 96.2252 103.902 95.95 104.17V104.17L95.68 104.51H95.53L95.31 104.76L95.21 104.88L95.14 105.05C95.0246 105.234 94.8942 105.408 94.75 105.57C94.75 105.57 94.75 105.57 94.75 105.57L94.61 105.79L94.56 105.94L94.46 106.11L94.24 106.48L94.09 106.65L94.04 106.75L93.89 107L93.6 107.46L93.43 107.83L93.28 108.08L93.15 108.2L93.24 108.43Z" fill="#E3B6AA"/>
<path d="M109.92 109.51L109.68 109.71L109.33 109.86H109.11L109 110V110.05L108.93 110.1L108.61 110.22L108.39 110.32L108.32 110.37H108.15L107.78 110.57L107.63 110.64L107.26 110.89L107 111L106.85 111.07L106.58 111.22L106.36 111.32H106.21L105.81 111.39L105.47 111.56H105.17H104.76L104.48 111.63L104.02 111.53C103.786 111.48 103.581 111.34 103.45 111.14L103.35 111.04V110.89C103.311 110.668 103.336 110.439 103.42 110.23V110.13L103.59 109.64L103.79 109.15L103.84 108.97L104.01 108.68L104.18 108.48V108.38L104.33 108.26L104.5 108.02L104.7 107.72L104.77 107.55L104.85 107.4L104.92 107.33L105 107.08L105.22 106.86L105.36 106.78L105.46 106.64L105.68 106.44L106.15 105.65L106.28 105.28L106.55 104.94L106.72 104.79L106.82 104.59L106.92 104.52V104.27V104.15L107.05 103.95L107.22 103.83H107.29H107.34V103.78L107.51 103.61L107.69 103.51C107.732 103.445 107.79 103.393 107.858 103.358C107.927 103.323 108.003 103.306 108.08 103.31C108.08 103.31 108.13 103.31 108.16 103.36L108.23 103.31H108.38H108.58L108.75 103.43V103.55V103.82L108.58 104.09L108.33 104.36L108.26 104.44L108.16 104.51H108.11L107.96 104.56L107.54 104.95V105.08L107.2 105.42C107.172 105.458 107.138 105.492 107.1 105.52V105.67L106.88 105.86L106.71 106.11L106.51 106.31L106.46 106.41L106.29 106.53L106.19 106.7L106.14 106.78L105.85 107.12L105.48 107.54L105.31 107.78L105.16 108.01L104.89 108.47C104.796 108.561 104.713 108.661 104.64 108.77L104.47 109.21L104.42 109.41L104.22 109.83L104.08 110.34V110.49V110.79C104.08 111.01 104.15 111.03 104.15 111.06L104.25 111.11H104.4H104.47H104.64L104.79 111.06H104.94H105.04H105.16L105.68 110.94H105.75C105.87 110.94 106.02 110.87 106.17 110.82L106.29 110.74L106.59 110.57L106.81 110.45L107.3 110.32L107.69 110.18L107.92 110.13L108.78 109.71L108.83 109.61H108.98L109.42 109.39L109.47 109.32L109.67 109.22H109.74L109.82 109.12L109.96 109.07L110.16 108.98L110.41 108.83L110.63 108.7L110.9 108.51L110.97 108.43L111.27 108.26L111.39 108.21L111.49 108.14L112.01 107.84H112L112.17 107.72H112.3L112.42 107.65C112.42 107.65 112.42 107.65 112.49 107.65L112.62 107.53L112.79 107.46L112.89 107.36L113.06 107.26L113.3 107.14L113.43 107.06C113.63 106.94 113.85 106.79 114.12 106.64L114.17 106.55H114.24H114.31L114.39 106.7L114.31 106.8L114.24 106.85L114.09 106.92V106.99H114.04V107L113.72 107.17H113.65L112.88 107.64L112.66 107.81L112.44 108.01L112.22 108.08L112.07 108.15C111.6 108.47 111.16 108.77 110.74 109.02L110.64 109.14L110.57 109.19L110.27 109.29L110.2 109.34L109.92 109.51ZM112 98.19L111.8 98.54L111.71 98.66L111.63 98.76L111.39 98.81H111.16L111 99L110.8 99.15L110.7 99.2L110.57 99.39L110.33 99.47L110.13 99.84L109.89 99.91L109.79 100.03L109.61 100.23L109.34 100.4V100.2L109.44 100.13C109.466 100.084 109.483 100.033 109.49 99.98L109.78 99.56L109.73 99.37L109.91 99L109.98 98.85L110.22 98.56L110.4 98.36L110.67 98.09L110.77 97.97L110.96 97.85L111.11 97.65L111.21 97.55H111.16L111.29 97.5V97.55L111.46 97.38L111.71 97.31L111.9 97.5L112.15 97.6L112.07 97.87V97.99L112 98.19Z" fill="#E3B6AA"/>
<path d="M120.58 108.46V108.41V108.33L121.02 107.79L121.12 107.59L121.19 107.52V107.47L121.26 107.42L121.56 107.1L121.65 106.98L121.72 106.74H121.59H121.37L121.08 106.81L120.36 107.08L120.19 107.13H120.07L119.35 107.57L119.15 107.69L118.98 107.77L118.81 107.86L118.24 108.14L117.68 108.46L117.45 108.55L117.09 108.75L116.96 108.8L116.67 108.97L116.52 109.02L116.08 109.29L115.93 109.39L115.78 109.51L115.56 109.59L115.34 109.69L114.75 110.01L114.5 110.15H114.45H114.23L113.94 110.27H113.74C113.662 110.316 113.578 110.35 113.49 110.37L113.39 110.44L112.9 110.62H112.8L112.43 110.77H112.36H112.29H112.14C111.74 110.77 111.42 110.77 111.32 110.48C111.247 110.107 111.311 109.72 111.5 109.39L111.59 109.1H111.67V109.01L111.77 108.86V108.76H111.82V108.64L111.99 108.39L112.26 108.19L112.46 107.87L112.56 107.75L112.75 107.6L113.05 107.36L114.16 106.36L114.48 106.09L114.55 106.01L114.97 105.67L115.17 105.55L115.81 105.08L116.11 104.76L116.23 104.64L116.33 104.47H116.5H116.58L116.75 104.42H116.85H116.97L117.07 104.35L117.26 104.27L118.05 103.88L118.2 103.76L118.3 103.71H118.5L118.73 103.63H118.8L118.92 103.56H119.09H119.24L119.42 103.51H119.51L119.76 103.59H119.91H120.05H120.15H120.2H120.3L120.38 103.64V103.69H120.48V103.82V104.04L120.4 104.09C120.4 104.16 120.31 104.21 120.13 104.38C120.106 104.4 120.076 104.412 120.045 104.412C120.014 104.412 119.984 104.4 119.96 104.38L119.69 104.46H119.52H119.07H118.68H119H118.83H118.66L118.31 104.61L117.92 104.78L117.35 105.02L116.96 105.2C116.813 105.279 116.673 105.37 116.54 105.47L116.32 105.64L115.21 106.45L115.12 106.55L114.89 106.8L114.72 106.97L114.55 107.07L114.33 107.19L114.25 107.26L114.03 107.51L113.98 107.56L113.93 107.63L113.64 108H113.56V108.05H113.48L113.43 108.15L113.36 108.25H113.31V108.37L113.21 108.49V108.59L113.09 108.71L112.97 108.86L112.72 109.16V109.21V109.35V109.4V109.45L112.62 109.53L112.55 109.62L112.43 109.77L112.33 109.92V109.97V110.11L112.38 110.19L112.46 110.31L112.53 110.36L113.05 110.16H113.27L113.61 110.04H113.73L114.73 109.62L114.85 109.55L115.03 109.45L115.15 109.35H115.35C115.62 109.22 115.91 109.1 116.18 108.95L116.31 108.86L116.48 108.78L116.55 108.71H116.65L117.02 108.54L117.22 108.44L117.39 108.35L118.05 108L118.22 107.88L118.91 107.56H119.06L119.5 107.34L119.73 107.16L120.17 106.94L120.29 106.84L120.49 106.72L120.61 106.62L120.91 106.43L121.23 106.23L121.99 106.06H122.29H122.51L122.68 106.15L122.78 106.23C122.824 106.238 122.866 106.258 122.899 106.288C122.933 106.318 122.958 106.357 122.97 106.4V106.4V106.5V106.57V106.62L122.92 106.67V106.74L122.87 106.84L122.72 106.96C122.689 107.017 122.649 107.068 122.6 107.11L122.43 107.38L122.28 107.5H122.21L121.91 107.84V107.89H121.86L121.72 108.09L121.67 108.16L121.62 108.26L121.42 108.53C121.379 108.582 121.346 108.639 121.32 108.7L121.25 108.9C121.204 108.975 121.187 109.063 121.2 109.15C121.2 109.22 121.2 109.15 121.28 109.2H121.35H121.47H121.65H121.7H121.87H121.99H122.04C122.222 109.169 122.402 109.129 122.58 109.08L122.78 109.03L122.95 108.96H123.1L123.96 108.71H124.03L124.31 108.64L124.62 108.55L124.82 108.45H124.92L125.02 108.38L125.83 108.16V108.11L125.91 108.16L126.13 108.08L126.2 108.01L127.38 107.67H127.5L128.12 107.47C128.131 107.465 128.143 107.462 128.155 107.462C128.167 107.462 128.179 107.465 128.19 107.47V107.47V107.65L128.09 107.72H127.89L127.47 107.82L127.18 107.96H127.08L126.69 108.06L126.49 108.14L125.92 108.41L125.5 108.58L125.04 108.73L124.5 108.92H124.4L124.15 109.02L124.03 109.1L123.83 109.17L123.65 109.24L123.46 109.37H123.38L123.33 109.42L122.69 109.64V109.69L122.49 109.76V109.81L122.07 109.96L121.7 110.08L121.58 110.18H121.5L121.33 110.23H121.06H121.01H120.84L120.71 110.18H120.62L120.54 110.09V109.96V109.86C120.507 109.759 120.507 109.651 120.54 109.55L120.61 109.37V109.27L120.79 109.05L120.86 108.93L121.06 108.68L120.58 108.46Z" fill="#E3B6AA"/>
<path d="M74.12 46.55C73.6 45.67 73.07 44.8 72.49 43.95C72.27 43.64 72 43.02 71.55 43.21L71.49 43.32V43.41C71.49 43.41 73.22 46.83 73.39 47.16C74.0714 48.4136 74.4611 49.8048 74.53 51.23C74.53 51.39 74.75 51.5 74.85 51.33C75.84 49.81 74.93 48 74.12 46.55Z" fill="#E3B6AA"/>
<path d="M114.28 70.75C113.21 70.19 112.28 69.27 111.28 68.62C110.321 67.9984 109.318 67.4469 108.28 66.97C106.714 66.2691 105.04 65.8396 103.33 65.7C104.02 65.33 104.69 64.93 105.33 64.5C107.128 63.3125 108.759 61.8899 110.18 60.27C111.728 58.9128 112.712 57.0259 112.94 54.98H112.84C112.459 56.1286 111.791 57.1611 110.9 57.98C108.989 60.2246 106.742 62.1607 104.24 63.72C102.556 64.7481 100.761 65.5833 98.89 66.21C98 66.51 97.11 66.82 96.19 67.05C95.56 67.2 94.92 67.31 94.29 67.45C92.52 66.84 90.8 66.13 89.05 65.45C87.9605 65.0268 86.8488 64.663 85.72 64.36C86.8834 64.176 87.9696 63.6624 88.85 62.88L89.07 62.67L90.17 62.15C92.593 61.0413 95.0969 60.1187 97.66 59.39C100.19 58.65 102.76 58.05 105.31 57.39C107.869 57.0119 110.344 56.2003 112.63 54.99C112.695 54.9521 112.744 54.8909 112.766 54.8185C112.789 54.7462 112.783 54.6682 112.75 54.6C112.714 54.5377 112.656 54.4909 112.588 54.4688C112.52 54.4466 112.446 54.4506 112.38 54.48C110.555 55.1408 108.683 55.6623 106.78 56.04C107.39 55.3731 107.958 54.6684 108.48 53.93C109.977 51.8792 111.315 49.7162 112.48 47.46L112.39 47.4C111.12 49.18 109.73 50.89 108.39 52.61C107.72 53.47 107.09 54.38 106.34 55.18C105.639 55.968 104.69 56.4935 103.65 56.67L103.54 56.72C101.44 57.19 99.36 57.72 97.31 58.33L96.7 58.52C97.26 58.09 97.8 57.63 98.34 57.17C99.94 55.76 101.48 54.29 103.21 53.04C106.838 51.0023 110.197 48.5198 113.21 45.65L113.27 45.58C113.46 45.36 113.18 45.04 112.93 45.09C111.617 45.4428 110.325 45.8701 109.06 46.37C107.91 46.71 106.78 47.11 105.67 47.56C104.389 48.0861 103.221 48.8533 102.23 49.82C102.904 48.4058 103.246 46.8564 103.23 45.29C103.178 43.8875 103.051 42.4889 102.85 41.1C102.76 40.36 102.65 39.63 102.52 38.9C102.45 38.54 102.38 38.17 102.29 37.81C102.2 37.45 102.01 37.12 101.92 36.75C101.899 36.6621 101.844 36.5858 101.767 36.5374C101.691 36.4889 101.599 36.4719 101.51 36.49C101.453 36.5005 101.4 36.5284 101.36 36.57C100.528 37.0807 99.7328 37.6487 98.98 38.27C98.3102 38.8917 97.6853 39.56 97.11 40.27C95.9598 41.6718 94.9703 43.1979 94.16 44.82C93.9857 41.4306 93.256 38.0929 92 34.94C91.993 34.9067 91.9793 34.8751 91.9597 34.8473C91.9401 34.8195 91.915 34.796 91.886 34.7782C91.8569 34.7604 91.8246 34.7487 91.7909 34.7439C91.7572 34.739 91.7228 34.7411 91.69 34.75H91.64C90.64 35.17 89.49 35.44 88.44 35.84C87.3931 36.2344 86.3682 36.685 85.37 37.19C83.5095 38.101 81.7695 39.2398 80.19 40.58L80.05 40.7C80.0898 40.2845 80.0593 39.8654 79.96 39.46C79.5389 37.9022 78.8813 36.4183 78.01 35.06C77.1896 33.7695 76.256 32.5547 75.22 31.43C74.0524 30.3401 73.1582 28.9902 72.61 27.49C72.6007 27.4569 72.5786 27.4288 72.5486 27.4119C72.5186 27.3951 72.4831 27.3908 72.45 27.4C72.4198 27.4072 72.3935 27.4258 72.3768 27.4519C72.36 27.478 72.354 27.5096 72.36 27.54C72.5388 28.7721 72.9712 29.9536 73.63 31.01C74.34 32.17 75.22 33.2 76 34.31C76.8498 35.5249 77.5704 36.8253 78.15 38.19C78.5076 38.7999 78.7229 39.4826 78.7801 40.1873C78.8372 40.892 78.7346 41.6005 78.48 42.26C76.3885 44.3791 75.1803 47.2137 75.1 50.19C73.665 50.6814 72.3899 51.5523 71.41 52.71C70.1204 54.5657 69.6007 56.849 69.96 59.08C70.1004 60.3177 70.3685 61.5375 70.76 62.72C70.9897 63.4122 71.3609 64.049 71.85 64.59C70.3714 64.2416 68.8761 63.9679 67.37 63.77C65.5383 62.2983 64.1064 60.3892 63.2064 58.2187C62.3064 56.0482 61.9672 53.6861 62.22 51.35C62.0624 48.9105 62.8502 46.504 64.42 44.63C65.2592 43.8109 66.3098 43.2415 67.4542 42.9854C68.5986 42.7293 69.7917 42.7967 70.9 43.18C70.9376 43.1864 70.9763 43.1791 71.0091 43.1594C71.0418 43.1398 71.0665 43.1091 71.0785 43.0728C71.0906 43.0366 71.0893 42.9973 71.0749 42.9619C71.0605 42.9265 71.0339 42.8975 71 42.88C70.143 42.5089 69.2174 42.3224 68.2836 42.3327C67.3497 42.3431 66.4285 42.55 65.58 42.94C65.615 42.6745 65.615 42.4055 65.58 42.14C65.5698 41.0419 65.6501 39.9449 65.82 38.86C66.0669 37.461 66.5362 36.1106 67.21 34.86C68.62 32.28 70.65 30.09 72.13 27.55C72.32 27.24 71.89 26.82 71.62 27.12C70.5429 28.357 69.5348 29.6523 68.6 31C67.6302 32.2277 66.7829 33.5473 66.07 34.94C65.3528 36.4357 64.9285 38.0548 64.82 39.71C64.269 38.5584 63.5476 37.4965 62.68 36.56C61.6856 35.5274 60.6087 34.5776 59.46 33.72C58.17 32.72 56.88 31.72 55.52 30.84C55.4 30.76 55.24 30.94 55.35 31.04C57.35 33.04 59.63 34.68 61.53 36.75C62.4469 37.7106 63.2154 38.8026 63.81 39.99C64.0975 40.5839 64.3188 41.2077 64.47 41.85C64.5385 42.3895 64.6421 42.9239 64.78 43.45C63.3684 44.3602 62.3374 45.7539 61.88 47.37C61.341 49.441 61.1884 51.5937 61.43 53.72C61.5335 55.8965 62.0671 58.0309 63 60C61.998 59.0601 61.0934 58.0215 60.3 56.9C59.18 55.3 58.17 53.61 57.04 52.02L56.83 51.72C55.9258 49.4877 55.3888 47.1238 55.24 44.72C54.8295 41.4035 54.6891 38.0592 54.82 34.72C54.82 35.37 54.93 36.01 55.02 36.65C55.3638 38.7088 55.9409 40.7217 56.74 42.65C57.1626 43.6627 57.4971 44.7099 57.74 45.78C57.9366 46.8492 58.0436 47.933 58.06 49.02C58.1107 51.0407 58.69 53.0128 59.74 54.74C59.7634 54.7829 59.8024 54.8152 59.849 54.8301C59.8955 54.845 59.946 54.8414 59.99 54.82C60.0322 54.7986 60.0643 54.7614 60.0793 54.7164C60.0942 54.6715 60.0909 54.6225 60.07 54.58C59.289 52.5735 58.9118 50.4326 58.96 48.28C58.9984 47.3289 58.9313 46.3764 58.76 45.44C58.5335 44.4887 58.2257 43.5586 57.84 42.66C57.0359 40.7181 56.4002 38.7107 55.94 36.66C55.72 35.66 55.57 34.58 55.45 33.54C55.33 32.5 55.37 31.43 55.17 30.43H55.05L55 31L54.91 31.09C53.6427 35.676 53.4273 40.4891 54.28 45.17C54.4168 46.6425 54.6607 48.103 55.01 49.54C52.6519 47.2681 49.8779 45.472 46.84 44.25C45.6996 43.7696 44.5037 43.4337 43.28 43.25C42.6362 43.1401 41.9824 43.0998 41.33 43.13C40.6447 43.2719 39.9491 43.3589 39.25 43.39C39.2189 43.3886 39.188 43.3936 39.1589 43.4046C39.1298 43.4155 39.1033 43.4322 39.0808 43.4537C39.0584 43.4752 39.0406 43.501 39.0284 43.5296C39.0162 43.5582 39.0099 43.5889 39.01 43.62C39.5234 44.8523 40.2899 45.9629 41.26 46.88V46.93C39.7483 46.3809 38.0952 46.3597 36.57 46.87C36.1865 46.982 35.8409 47.1964 35.57 47.49L35.5 47.56C35.4361 47.6716 35.3921 47.7934 35.37 47.92C35.23 48.84 36.1 49.77 36.58 50.48C39.1122 54.2922 42.0492 57.8194 45.34 61C46.3084 62.0398 47.5221 62.8203 48.87 63.27C48.0166 63.3202 47.1678 63.4305 46.33 63.6C44.5232 64.0019 42.8393 64.8319 41.42 66.02C39.9839 67.3291 38.6469 68.743 37.42 70.25L37.51 70.34C38.6733 69.133 39.927 68.0165 41.26 67C42.6565 65.8632 44.274 65.0289 46.01 64.55C47.7959 64.139 49.6382 64.0308 51.46 64.23C52.5475 64.3277 53.6081 64.6225 54.59 65.1C55.2989 66.2498 56.1305 67.3194 57.07 68.29C57.5063 68.7482 57.9706 69.179 58.46 69.58C55.4283 69.1498 52.3373 69.4726 49.46 70.52C47.4213 71.1784 45.3352 71.6799 43.22 72.02C41.1177 72.3687 38.9604 72.1512 36.97 71.39L36.91 71.51C37.7795 72.0816 38.7349 72.5104 39.74 72.78C40.42 73.11 41.11 73.43 41.82 73.71C42.96 74.17 44.13 74.58 45.31 74.94C47.5845 75.632 49.9031 76.1698 52.25 76.55C56.6885 77.7042 61.3946 77.214 65.5 75.17C67.37 74.05 69.04 72.63 70.81 71.37C71.3511 71.0654 71.8433 70.6811 72.27 70.23C72.3109 70.1888 72.3339 70.1331 72.3339 70.075C72.3339 70.0169 72.3109 69.9612 72.27 69.92C72.2298 69.8892 72.1806 69.8725 72.13 69.8725C72.0794 69.8725 72.0302 69.8892 71.99 69.92C70.2397 71.0844 68.1724 71.6796 66.0709 71.6241C63.9694 71.5687 61.9364 70.8652 60.25 69.61C58.5395 68.4046 57.0537 66.9086 55.86 65.19C55.1211 64.2197 54.5313 63.1445 54.11 62C53.9788 61.6158 53.9014 61.2154 53.88 60.81C54.0397 61.0215 54.2244 61.2128 54.43 61.38C55.3468 62.0169 56.3596 62.503 57.43 62.82C58.5996 63.2174 59.796 63.5315 61.01 63.76C63.38 64.21 65.78 64.44 68.16 64.76C69.5616 64.96 70.9506 65.2405 72.32 65.6C73.45 65.91 74.95 66.46 75.15 67.69C75.0049 68.9035 75.253 70.1316 75.8578 71.1936C76.4626 72.2557 77.3922 73.0956 78.51 73.59L78.57 73.46C77.5291 72.6755 76.7909 71.5558 76.48 70.29C76.1398 69.6612 75.9934 68.9458 76.0592 68.234C76.1251 67.5221 76.4002 66.8457 76.85 66.29C78.014 65.4572 79.3619 64.9178 80.7791 64.7176C82.1962 64.5174 83.6408 64.6623 84.99 65.14C87.84 65.84 90.49 67.14 93.25 68.14C95.6633 69.0504 98.173 69.6812 100.73 70.02L100.32 70.23C99.3448 70.7247 98.4088 71.293 97.52 71.93C95.7116 73.303 93.6826 74.3581 91.52 75.05C89.5283 75.6122 87.4549 75.8287 85.39 75.69C84.3365 75.6283 83.2897 75.4812 82.26 75.25C81.26 75.02 80.26 74.54 79.26 74.31L79.18 74.44C79.9866 75.04 80.8943 75.4904 81.86 75.77C82.8103 76.1113 83.7916 76.3592 84.79 76.51C86.9185 76.8129 89.0857 76.6974 91.17 76.17L91.87 75.98C95.9907 76.9368 100.254 77.1132 104.44 76.5C108.31 75.9995 111.845 74.0479 114.33 71.04C114.346 70.9913 114.35 70.9393 114.342 70.8887C114.333 70.8381 114.312 70.7904 114.28 70.75V70.75ZM60.66 71.16C62.5399 72.2281 64.6929 72.7186 66.85 72.57C67.17 72.57 67.5 72.51 67.85 72.46L66.14 73.63C64.3093 74.894 62.2051 75.7062 60 76C57.7652 76.2189 55.5111 76.1314 53.3 75.74C50.91 75.38 48.54 74.87 46.18 74.3C44.9 73.99 43.62 73.65 42.34 73.3L41.73 73.12H42.18C44.2765 72.9873 46.347 72.5839 48.34 71.92C50.3666 71.2196 52.4515 70.7009 54.57 70.37C56.6341 70.1228 58.7273 70.3944 60.66 71.16V71.16ZM35.74 48L36.07 48.52C35.9163 48.3786 35.8025 48.1993 35.74 48ZM60.07 62.7C59.0264 62.4782 58.0004 62.1807 57 61.81C56.1 61.48 54.74 61.07 54.31 60.11C54.1912 59.8899 54.1592 59.6333 54.2203 59.3909C54.2814 59.1484 54.4311 58.9376 54.64 58.8C54.7826 58.715 54.9441 58.6669 55.11 58.66C55.7734 58.649 56.4282 58.811 57.01 59.13C58.0638 59.7012 59.022 60.4333 59.85 61.3V61.3C58.59 59.84 57.15 57.9 54.98 57.96C54.6178 57.9546 54.2651 58.0754 53.9823 58.3017C53.6995 58.5279 53.5042 58.8455 53.43 59.2C52.9424 60.6093 53.0286 62.1537 53.67 63.5L53.9 63.99C53.3529 63.7696 52.7826 63.6119 52.2 63.52C51.4757 63.4022 50.7437 63.3387 50.01 63.33C48.0784 62.6616 46.3922 61.4283 45.17 59.79C43.57 58.07 42.0333 56.2933 40.56 54.46C39.44 53.08 38.43 51.63 37.37 50.21C37.8127 50.6814 38.2835 51.1256 38.78 51.54C40.2756 52.7075 41.8455 53.7765 43.48 54.74C45.11 55.74 46.79 56.74 48.33 57.85C49.0759 58.3946 49.7811 58.9928 50.44 59.64C50.9288 60.2904 51.4706 60.8991 52.06 61.46C52.0949 61.4794 52.1358 61.485 52.1747 61.4758C52.2135 61.4665 52.2475 61.443 52.27 61.41C52.2743 61.3869 52.2743 61.3631 52.27 61.34C52.1402 60.6159 51.7911 59.9492 51.27 59.43C50.7521 58.7539 50.1544 58.1428 49.49 57.61C47.9883 56.4594 46.4115 55.4104 44.77 54.47C41.3533 52.8241 38.2712 50.5592 35.68 47.79C35.7362 47.6452 35.8292 47.5177 35.95 47.42C36.1371 47.2957 36.3554 47.2264 36.58 47.22C37.2044 47.1451 37.8356 47.1451 38.46 47.22C39.093 47.2883 39.7187 47.4121 40.33 47.59C40.8293 47.7715 41.3405 47.9185 41.86 48.03L42.06 47.96C42.81 48.8 43.56 49.65 44.32 50.49C45.32 51.64 46.32 52.82 47.45 53.94C48.58 55.06 49.8 56.25 50.96 57.42L51.07 57.33C50.07 56.11 49.18 54.85 48.2 53.65C47.22 52.45 46.2 51.29 45.14 50.12L45.06 50.02C45.9646 50.6235 46.8991 51.1809 47.86 51.69C51.383 53.1608 54.6321 55.2164 57.47 57.77C57.64 57.95 57.9 57.71 57.76 57.51C55.3807 54.6939 52.3826 52.4659 49 51C47.3183 50.16 45.7065 49.1869 44.18 48.09C42.5 46.81 41.3 45.09 39.75 43.67C40.2381 43.6097 40.7318 43.6097 41.22 43.67C41.8419 43.7084 42.4602 43.7919 43.07 43.92C44.1659 44.1709 45.2344 44.5293 46.26 44.99C48.3772 45.9509 50.3882 47.1307 52.26 48.51C53.7899 49.6711 55.1177 51.0766 56.19 52.67C56.3216 52.8933 56.4686 53.1071 56.63 53.31C57.56 54.66 58.43 56.06 59.42 57.39C60.5088 59.0658 62.0011 60.4412 63.76 61.39C64.4353 62.3277 65.2923 63.1201 66.28 63.72C64.24 63.41 62.14 63.16 60.07 62.7ZM106.58 48.22C107.71 47.83 108.88 47.54 110.02 47.22L110.91 46.95C108.34 48.95 105.32 50.33 102.67 52.21C101.049 53.4457 99.528 54.8065 98.12 56.28C99.0596 55.1672 99.9217 53.9911 100.7 52.76C101.02 52.25 101.33 51.76 101.62 51.2C103.002 49.8005 104.725 48.787 106.62 48.26L106.58 48.22ZM101.34 37.52C101.33 37.7099 101.33 37.9001 101.34 38.09L101.51 39.19C101.61 39.83 101.7 40.47 101.79 41.12C101.96 42.42 102.11 43.74 102.15 45.06C102.095 47.6057 101.253 50.072 99.74 52.12C98.4632 54.1224 96.9563 55.9683 95.25 57.62C93.8566 59.0632 92.1441 60.1592 90.25 60.82C91.3931 58.8487 92.6694 56.9576 94.07 55.16C95.4366 53.7426 96.6531 52.1876 97.7 50.52C98.7158 48.5516 99.4529 46.4515 99.89 44.28C100.13 43.28 100.33 42.28 100.52 41.21C100.81 40.0438 101.011 38.8569 101.12 37.66L101.34 37.52ZM94.83 45.78C95.6206 44.1544 96.5791 42.616 97.69 41.19C98.2714 40.4602 98.8994 39.7688 99.57 39.12C99.96 38.75 100.36 38.35 100.78 37.98C100.42 38.98 100.24 39.98 99.98 40.98C99.72 41.98 99.43 43.2 99.14 44.3C98.6085 46.443 97.7411 48.4883 96.57 50.36C94.96 52.86 92.27 54.94 90.87 57.62V57.53V56.82C91.35 55.14 91.95 53.48 92.49 51.82C93.133 49.7664 93.9217 47.7613 94.85 45.82L94.83 45.78ZM84 64.05C82.9301 63.8683 81.8416 63.8212 80.76 63.91C79.7502 63.91 78.7545 64.147 77.853 64.6021C76.9516 65.0571 76.1696 65.7175 75.57 66.53C74.8844 65.742 73.9733 65.1835 72.96 64.93L72.3 64.75C71.9 63.9901 71.6296 63.1689 71.5 62.32C71.2186 61.1637 71.0314 59.9865 70.94 58.8C70.8055 57.7352 70.903 56.6539 71.2258 55.6303C71.5486 54.6067 72.089 53.6651 72.81 52.87C74.4321 51.6298 76.3059 50.7595 78.3 50.32C80.6168 49.6983 82.8727 48.8682 85.04 47.84C85.075 47.8212 85.1059 47.7956 85.1309 47.7647C85.1559 47.7338 85.1746 47.6982 85.1857 47.6601C85.1969 47.6219 85.2004 47.582 85.1959 47.5425C85.1915 47.503 85.1793 47.4647 85.16 47.43C85.1309 47.3725 85.0841 47.3259 85.0264 47.2971C84.9688 47.2683 84.9034 47.2588 84.84 47.27C83.4496 47.5084 82.084 47.8733 80.76 48.36L76.76 49.67L75.53 50.09C75.9167 48.3906 76.5716 46.7635 77.47 45.27C78.4491 43.7005 79.6787 42.302 81.11 41.13C82.6985 39.8508 84.4301 38.7601 86.27 37.88C87.16 37.44 88.06 37.03 88.97 36.61C89.88 36.19 90.69 35.75 91.58 35.39C92.7573 39.2518 93.2613 43.2873 93.07 47.32C92.5778 48.5399 92.1505 49.785 91.79 51.05C91.34 52.61 91.06 54.2 90.74 55.78C90.5847 54.4166 90.2134 53.0866 89.64 51.84C89.2329 50.9735 88.7005 50.1716 88.06 49.46C87.4251 48.762 86.6521 48.2035 85.79 47.82L85.71 47.92C88.1128 50.3204 89.5384 53.5279 89.71 56.92C89.9091 58.6819 89.4101 60.4516 88.32 61.85L87.86 62.33L86.86 62.87C85.9366 63.3324 84.9808 63.7268 84 64.05ZM97.25 68.39L96.25 68.13H96.39C97.462 67.962 98.5188 67.7078 99.55 67.37C100.09 67.19 100.62 66.98 101.15 66.76L101.21 66.83C101.72 67.2 102.45 67.52 102.74 68.1C102.817 68.2447 102.857 68.4061 102.857 68.57C102.857 68.7339 102.817 68.8953 102.74 69.04C102.47 69.46 101.88 69.33 101.47 69.26C100.03 69.04 98.6 68.78 97.19 68.42L97.25 68.39ZM104.05 75.58C100.399 76.0197 96.7121 76.0733 93.05 75.74C94.4847 75.1872 95.8451 74.4583 97.1 73.57L99.1 72.18C101.859 72.6694 104.658 72.9004 107.46 72.87C108.758 72.9336 110.059 72.8565 111.34 72.64L111.77 72.52C109.461 74.097 106.831 75.1421 104.07 75.58H104.05ZM112.05 71.58C111.589 71.6816 111.121 71.7484 110.65 71.78C109.33 71.9 107.99 71.89 106.65 71.9C104.32 71.9 101.98 71.9 99.65 71.78L100.26 71.38C100.77 71.06 101.26 70.75 101.85 70.47C102.47 70.1627 103.035 69.7537 103.52 69.26C103.599 69.0427 103.63 68.8105 103.61 68.58C103.546 68.0766 103.33 67.6047 102.99 67.2276C102.651 66.8505 102.204 66.5862 101.71 66.47L102.59 66.06C104.474 66.3609 106.296 66.9725 107.98 67.87C108.93 68.34 109.86 68.87 110.78 69.38C111.7 69.89 112.61 70.29 113.42 70.86C112.985 71.1512 112.519 71.3927 112.03 71.58H112.05Z" fill="#E3B6AA"/>
</svg>
