<svg width="85" height="50" viewBox="0 0 85 50" fill="none" xmlns="http://www.w3.org/2000/svg">
<path fill-rule="evenodd" clip-rule="evenodd" d="M45.2933 48.1167C45.2933 48.1167 13.9343 57.2715 4.82935 27.062C4.82935 27.062 39.2243 17.9072 45.2933 48.1167Z" fill="#F7CBE6"/>
<path fill-rule="evenodd" clip-rule="evenodd" d="M44.2983 48.104C44.2983 48.104 75.7993 57.3481 84.9453 26.843C84.9453 26.843 50.3953 17.5998 44.2983 48.104Z" fill="#F7CBE6"/>
<path fill-rule="evenodd" clip-rule="evenodd" d="M44.2792 47.6333C44.2792 47.6333 12.5152 41.5813 20.8532 10.8154C20.8532 10.8154 55.2182 18.2338 44.2792 47.6333Z" fill="#F7CBE6"/>
<path fill-rule="evenodd" clip-rule="evenodd" d="M45.2694 47.6855C45.2694 47.6855 77.0334 41.6337 68.6954 10.8677C68.6954 10.8677 34.3314 18.2868 45.2694 47.6855Z" fill="#F7CBE6"/>
<path fill-rule="evenodd" clip-rule="evenodd" d="M44.5515 47.8848C44.5515 47.8848 21.2445 26.8785 46.0065 5.09961C46.0065 5.09961 70.7185 28.5619 44.5515 47.8848Z" fill="#F7CBE6"/>
<path fill-rule="evenodd" clip-rule="evenodd" d="M40.869 44.3181C40.869 44.3181 10.038 53.6648 1 23.0709C1 23.0709 34.817 13.7177 40.869 44.3181Z" stroke="black"/>
<path fill-rule="evenodd" clip-rule="evenodd" d="M41.3574 44.0857C41.3574 44.0857 72.2364 53.2925 81.1154 22.6587C81.1154 22.6587 47.2494 13.4584 41.3574 44.0857Z" stroke="black"/>
<path fill-rule="evenodd" clip-rule="evenodd" d="M40.5038 43.5356C40.5038 43.5356 8.72379 37.5555 16.9818 6.77051C16.9818 6.77051 51.3658 14.1123 40.5038 43.5356Z" stroke="black"/>
<path fill-rule="evenodd" clip-rule="evenodd" d="M41.4941 43.5854C41.4941 43.5854 73.2421 37.4619 64.8241 6.71533C64.8241 6.71533 30.4791 14.2118 41.4941 43.5854Z" stroke="black"/>
<path fill-rule="evenodd" clip-rule="evenodd" d="M40.7761 43.7866C40.7761 43.7866 17.4151 22.8342 42.1201 1C42.1201 1 66.8931 24.4056 40.7761 43.7866Z" stroke="black"/>
</svg>
