<svg width="400" height="436" viewBox="0 0 400 436" fill="none" xmlns="http://www.w3.org/2000/svg">
<g clip-path="url(#clip0)">
<path d="M400 392.043C400 405.257 310.457 435.368 200 435.368C89.5431 435.368 0 405.257 0 392.043C0 378.829 89.5431 387.517 200 387.517C310.457 387.517 400 378.829 400 392.043Z" fill="#3F3D56"/>
<path opacity="0.1" d="M400 392.043C400 405.257 310.457 435.368 200 435.368C89.5431 435.368 0 405.257 0 392.043C0 378.829 89.5431 387.517 200 387.517C310.457 387.517 400 378.829 400 392.043Z" fill="black"/>
<path d="M56.9579 216.156C61.605 216.156 65.3722 212.392 65.3722 207.75C65.3722 203.107 61.605 199.343 56.9579 199.343C52.3109 199.343 48.5437 203.107 48.5437 207.75C48.5437 212.392 52.3109 216.156 56.9579 216.156Z" fill="#C4D6C4"/>
<path d="M93.851 285.347C98.4981 285.347 102.265 281.583 102.265 276.941C102.265 272.298 98.4981 268.534 93.851 268.534C89.204 268.534 85.4368 272.298 85.4368 276.941C85.4368 281.583 89.204 285.347 93.851 285.347Z" fill="#C4D6C4"/>
<path d="M65.3722 267.888C70.0193 267.888 73.7865 264.124 73.7865 259.481C73.7865 254.838 70.0193 251.075 65.3722 251.075C60.7252 251.075 56.958 254.838 56.958 259.481C56.958 264.124 60.7252 267.888 65.3722 267.888Z" fill="#C4D6C4"/>
<path d="M68.0561 378.801C67.9076 378.558 64.4052 372.716 63.191 360.584C62.0772 349.453 62.7934 330.692 72.5325 304.521C90.9829 254.942 68.2805 214.939 68.0485 214.541L69.1685 213.891C69.2273 213.992 75.0854 224.192 78.5461 240.432C83.1186 261.964 81.4536 284.352 73.746 304.972C55.3273 354.466 69.0206 377.896 69.1609 378.127L68.0561 378.801Z" fill="#CFCCE0"/>
<path d="M60.8415 212.276C59.0493 212.276 57.2974 211.745 55.8072 210.75C54.3171 209.756 53.1556 208.342 52.4698 206.688C51.7839 205.033 51.6045 203.213 51.9542 201.457C52.3038 199.701 53.1668 198.088 54.4341 196.822C55.7014 195.556 57.316 194.693 59.0737 194.344C60.8315 193.995 62.6534 194.174 64.3092 194.859C65.965 195.544 67.3802 196.705 68.3759 198.193C69.3716 199.682 69.903 201.433 69.903 203.223C69.9003 205.623 68.9448 207.924 67.246 209.622C65.5472 211.319 63.244 212.273 60.8415 212.276ZM60.8415 195.463C59.3054 195.463 57.8037 195.918 56.5264 196.771C55.2491 197.624 54.2536 198.836 53.6658 200.254C53.0779 201.671 52.9241 203.232 53.2238 204.737C53.5235 206.242 54.2632 207.625 55.3494 208.71C56.4357 209.795 57.8196 210.534 59.3263 210.834C60.8329 211.133 62.3946 210.979 63.8138 210.392C65.2331 209.805 66.4461 208.81 67.2995 207.534C68.153 206.258 68.6085 204.758 68.6085 203.223C68.6062 201.166 67.7871 199.193 66.331 197.739C64.8749 196.284 62.9007 195.466 60.8415 195.463Z" fill="#CFCCE0"/>
<path d="M87.3786 242.668C92.0257 242.668 95.7928 238.905 95.7928 234.262C95.7928 229.619 92.0257 225.856 87.3786 225.856C82.7315 225.856 78.9644 229.619 78.9644 234.262C78.9644 238.905 82.7315 242.668 87.3786 242.668Z" fill="#CFCCE0"/>
<path d="M69.2558 264.008C67.4636 264.008 65.7117 263.477 64.2215 262.482C62.7314 261.487 61.5699 260.073 60.8841 258.419C60.1983 256.765 60.0188 254.945 60.3685 253.188C60.7181 251.432 61.5811 249.819 62.8484 248.553C64.1157 247.287 65.7303 246.425 67.488 246.076C69.2458 245.726 71.0677 245.906 72.7235 246.591C74.3793 247.276 75.7945 248.436 76.7902 249.925C77.7859 251.414 78.3173 253.164 78.3173 254.955C78.3146 257.355 77.3591 259.656 75.6603 261.353C73.9615 263.05 71.6582 264.005 69.2558 264.008ZM69.2558 247.195C67.7196 247.195 66.218 247.65 64.9407 248.503C63.6634 249.355 62.6679 250.567 62.08 251.985C61.4922 253.403 61.3384 254.963 61.6381 256.468C61.9377 257.974 62.6775 259.356 63.7637 260.442C64.85 261.527 66.2339 262.266 67.7405 262.565C69.2472 262.865 70.8089 262.711 72.2281 262.124C73.6473 261.536 74.8604 260.542 75.7138 259.266C76.5673 257.99 77.0228 256.489 77.0228 254.955C77.0205 252.897 76.2014 250.925 74.7453 249.47C73.2892 248.015 71.315 247.197 69.2558 247.195V247.195Z" fill="#CFCCE0"/>
<path d="M91.2622 281.467C89.47 281.467 87.718 280.936 86.2279 279.941C84.7377 278.947 83.5763 277.533 82.8904 275.878C82.2046 274.224 82.0252 272.404 82.3748 270.648C82.7244 268.892 83.5875 267.279 84.8547 266.013C86.122 264.746 87.7366 263.884 89.4944 263.535C91.2521 263.186 93.0741 263.365 94.7299 264.05C96.3856 264.735 97.8008 265.896 98.7965 267.384C99.7922 268.873 100.324 270.623 100.324 272.414C100.321 274.814 99.3654 277.115 97.6666 278.812C95.9679 280.51 93.6646 281.464 91.2622 281.467ZM91.2622 264.654C89.726 264.654 88.2243 265.109 86.9471 265.962C85.6698 266.815 84.6743 268.027 84.0864 269.445C83.4986 270.862 83.3447 272.423 83.6444 273.928C83.9441 275.433 84.6838 276.816 85.7701 277.901C86.8563 278.986 88.2403 279.725 89.7469 280.025C91.2536 280.324 92.8152 280.17 94.2345 279.583C95.6537 278.996 96.8667 278.001 97.7202 276.725C98.5736 275.449 99.0292 273.949 99.0292 272.414C99.0269 270.357 98.2078 268.384 96.7517 266.93C95.2956 265.475 93.3214 264.657 91.2622 264.654Z" fill="#CFCCE0"/>
<path d="M62.7831 307.979C67.4302 307.979 71.1974 304.216 71.1974 299.573C71.1974 294.93 67.4302 291.167 62.7831 291.167C58.1361 291.167 54.3689 294.93 54.3689 299.573C54.3689 304.216 58.1361 307.979 62.7831 307.979Z" fill="#CFCCE0"/>
<path d="M73.1392 379.11C73.1392 379.11 64.725 358.418 89.9677 342.898L73.1392 379.11Z" fill="#CFCCE0"/>
<path d="M62.791 378.735C62.791 378.735 58.9617 356.73 29.3228 356.919L62.791 378.735Z" fill="#CFCCE0"/>
<path d="M366.562 386.87H223.342C223.342 386.87 220.439 344.331 237.616 343.848C254.792 343.364 252.857 362.7 274.388 336.113C295.92 309.527 322.047 310.977 325.434 326.687C328.821 342.398 318.902 354.966 337.047 351.099C355.191 347.231 381.319 357.383 366.562 386.87Z" fill="#C4D6C4"/>
<path d="M292.534 386.88L292.051 386.86C293.178 358.853 299.049 340.858 303.776 330.694C308.908 319.658 313.854 315.191 313.903 315.147L314.225 315.508C314.176 315.551 309.288 319.975 304.197 330.936C299.496 341.057 293.657 358.978 292.534 386.88Z" fill="#F2F2F2"/>
<path d="M344.369 386.938L343.905 386.803C349.498 367.623 362.669 355.513 362.801 355.393L363.126 355.751C362.995 355.87 349.922 367.894 344.369 386.938Z" fill="#F2F2F2"/>
<path d="M245.9 386.903L245.421 386.837C247.318 373.164 243.89 362.556 240.681 356.064C237.205 349.036 233.24 345.197 233.2 345.159L233.535 344.81C233.575 344.848 237.602 348.746 241.114 355.85C244.354 362.402 247.814 373.109 245.9 386.903Z" fill="#F2F2F2"/>
<path d="M385.999 387.517H207.895L207.854 386.914C207.751 385.415 205.479 350.045 216.95 337.425C219.514 334.604 222.603 333.123 226.131 333.024C233.608 332.812 238.307 335.61 242.097 337.856C249.24 342.089 253.96 344.887 271.118 323.699C289.705 300.747 309.76 295.809 321.29 298.555C328.739 300.329 333.873 305.344 335.376 312.314C336.798 318.914 336.345 325.115 335.981 330.098C335.591 335.429 335.284 339.64 337.475 341.548C339.305 343.141 342.957 343.286 348.967 342.004C361.192 339.399 378.251 341.628 386.813 352.68C391.419 358.626 395.048 369.435 386.178 387.159L385.999 387.517ZM209.11 386.223H385.198C391.808 372.826 392.014 361.507 385.789 353.472C377.935 343.333 361.456 340.664 349.237 343.269C342.707 344.661 338.816 344.431 336.625 342.524C333.945 340.191 334.274 335.695 334.69 330.004C335.048 325.103 335.494 319.005 334.11 312.586C332.717 306.123 327.934 301.467 320.989 299.813C309.828 297.153 290.333 302.028 272.124 324.513C254.263 346.568 248.882 343.38 241.437 338.968C237.6 336.695 233.244 334.116 226.168 334.317C223.005 334.406 220.227 335.744 217.908 338.295C207.599 349.637 208.858 381.442 209.11 386.223Z" fill="#CFCCE0"/>
<path d="M200 415.969C310.457 415.969 400 405.257 400 392.043C400 378.829 310.457 368.117 200 368.117C89.5431 368.117 0 378.829 0 392.043C0 405.257 89.5431 415.969 200 415.969Z" fill="#3F3D56"/>
<path d="M204.398 79.0514C204.398 79.0514 194.399 75.4838 187.971 89.7542C181.544 104.025 171.545 119.722 171.545 119.722L177.258 121.149C177.258 121.149 178.687 111.16 182.258 109.733L180.829 122.576C180.829 122.576 223.681 137.56 242.964 121.149L242.25 116.155C242.25 116.155 245.107 116.868 245.107 121.149L247.249 119.009C247.249 119.009 245.107 114.728 238.679 109.019C234.46 105.273 233.01 98.1449 232.512 93.6884C232.139 89.9672 230.649 86.4456 228.237 83.5854C223.965 78.6396 216.182 73.3829 204.398 79.0514Z" fill="#2F2E41"/>
<path d="M193.851 135.002L183.495 122.069L175.728 95.5568L205.502 63.8712C205.502 63.8712 211.974 39.2987 206.149 40.592C200.324 41.8853 199.029 59.9913 199.029 59.9913L161.489 89.0903C161.489 89.0903 165.372 129.829 176.376 144.055L184.79 170.568L193.851 135.002Z" fill="#FFB9B9"/>
<path d="M222.33 135.002L232.686 122.069L240.453 95.5568L210.68 63.8712C210.68 63.8712 204.207 39.2987 210.032 40.592C215.858 41.8853 217.152 59.9913 217.152 59.9913L254.692 89.0903C254.692 89.0903 250.809 129.829 239.806 144.055L231.392 170.568L222.33 135.002Z" fill="#FFB9B9"/>
<path d="M208.091 124.009C217.385 124.009 224.919 116.482 224.919 107.196C224.919 97.9109 217.385 90.3836 208.091 90.3836C198.797 90.3836 191.262 97.9109 191.262 107.196C191.262 116.482 198.797 124.009 208.091 124.009Z" fill="#FFB9B9"/>
<path d="M200.324 116.249C200.324 116.249 200.971 129.829 197.087 134.355C193.204 138.882 189.32 162.161 208.091 162.808C226.861 163.454 224.919 143.408 224.919 143.408L221.036 132.415C221.036 132.415 215.21 124.009 217.152 116.249H200.324Z" fill="#FFB9B9"/>
<path d="M182.848 266.918L196.764 271.121C196.764 271.121 208.091 264.331 208.091 270.797C208.091 277.264 204.207 285.67 205.502 291.49C206.796 297.31 209.385 311.536 205.502 311.536C201.618 311.536 193.851 286.317 193.851 286.317L180.906 279.204L182.848 266.918Z" fill="#FFB9B9"/>
<path d="M200.324 357.448L195.146 377.494C195.146 377.494 190.615 383.314 195.146 385.9C197.272 387.114 198.827 389.609 199.88 391.916C200.798 393.993 202.333 395.738 204.278 396.914C206.223 398.089 208.483 398.638 210.75 398.486C212.959 398.303 214.82 397.43 215.273 395.162C215.398 394.451 215.374 393.721 215.201 393.02C215.029 392.318 214.712 391.66 214.271 391.087C209.496 384.642 208.414 380.404 208.414 380.404L210.356 357.771L200.324 357.448Z" fill="#FFB9B9"/>
<path d="M187.79 110.182C187.79 110.182 193.504 102.334 198.503 100.907C203.503 99.4795 204.217 92.3442 204.217 92.3442C204.217 92.3442 217.072 106.615 224.928 107.328C232.784 108.042 225.642 90.2037 225.642 90.2037L211.359 86.636L197.789 88.0631L187.076 95.1983L187.79 110.182Z" fill="#2F2E41"/>
<path d="M177.023 217.773L174.434 222.946C174.434 222.946 111.65 242.992 116.828 261.744C122.006 280.497 151.133 275.324 151.133 275.324L183.495 281.144L186.731 266.918L164.078 261.098L202.913 246.872L204.207 312.829L199.029 360.034L211.974 361.328C211.974 361.328 226.214 318.002 224.272 299.896C224.272 299.896 248.22 226.179 234.628 215.186C221.036 204.193 177.023 217.773 177.023 217.773Z" fill="#2F2E41"/>
<path d="M208.85 143.417L198.75 131.223L191.909 134.355L184.79 156.988C184.79 156.988 178.965 167.981 186.084 179.621C186.084 179.621 187.379 187.38 185.437 189.32C183.495 191.26 182.848 203.546 182.848 203.546L174.434 219.713C174.434 219.713 222.33 228.119 236.57 216.479C236.57 216.479 229.098 188.957 233.628 180.551C238.159 172.144 238.806 159.257 233.628 153.438C228.45 147.618 222.977 132.416 222.977 132.416L219.843 130.413L208.85 143.417Z" fill="#F7CBE6"/>
<path d="M246.608 46.8718H240.4V40.6699H239.836V46.8718H233.628V47.4353H239.836V53.6371H240.4V47.4353H246.608V46.8718Z" fill="#3F3D56"/>
<path d="M187.61 33.9046H181.403V27.7027H180.839V33.9046H174.631V34.4681H180.839V40.67H181.403V34.4681H187.61V33.9046Z" fill="#3F3D56"/>
<path d="M215.929 6.20186H209.722V0H209.157V6.20186H202.949V6.76537H209.157V12.9672H209.722V6.76537H215.929V6.20186Z" fill="#3F3D56"/>
</g>
<defs>
<clipPath id="clip0">
<rect width="400" height="435.368" fill="white"/>
</clipPath>
</defs>
</svg>
